<svg xmlns="http://www.w3.org/2000/svg" xmlns:xlink="http://www.w3.org/1999/xlink" width="1587" zoomAndPan="magnify" viewBox="0 0 1190.25 1683.749949" height="2245" preserveAspectRatio="xMidYMid meet" version="1.0"><defs><clipPath id="id1"><path d="M 0 0.40625 L 1189.5 0.40625 L 1189.5 1683.09375 L 0 1683.09375 Z M 0 0.40625 " clip-rule="nonzero"/></clipPath><clipPath id="id2"><path d="M 387.886719 282.816406 L 863.839844 282.816406 L 863.839844 677.070312 L 387.886719 677.070312 Z M 387.886719 282.816406 " clip-rule="nonzero"/></clipPath></defs><g clip-path="url(#id1)"><path fill="#ffffff" d="M 0 0.40625 L 1190.25 0.40625 L 1190.25 1691.339844 L 0 1691.339844 Z M 0 0.40625 " fill-opacity="1" fill-rule="nonzero"/><path fill="#ffffff" d="M 0 0.40625 L 1189.5 0.40625 L 1189.5 1683.09375 L 0 1683.09375 Z M 0 0.40625 " fill-opacity="1" fill-rule="nonzero"/><path fill="#ffffff" d="M 0 0.40625 L 1189.5 0.40625 L 1189.5 1683.09375 L 0 1683.09375 Z M 0 0.40625 " fill-opacity="1" fill-rule="nonzero"/><path fill="#ffffff" d="M 0 0.40625 L 1189.5 0.40625 L 1189.5 1683.09375 L 0 1683.09375 Z M 0 0.40625 " fill-opacity="1" fill-rule="nonzero"/></g><g clip-path="url(#id2)"><path fill="#f5f5ff" d="M 825.109375 350.292969 C 847.675781 358.644531 863.839844 380.4375 863.808594 405.859375 L 863.699219 605.320312 C 863.667969 644.800781 831.460938 677.054688 791.972656 677.054688 L 459.617188 677.054688 C 420.097656 677.054688 387.886719 644.800781 387.886719 605.292969 L 387.886719 338.535156 C 387.886719 318.148438 425.886719 282.828125 450.285156 282.828125 C 556.664062 282.828125 663.046875 282.828125 769.429688 282.828125 C 800.09375 282.828125 825.109375 307.828125 825.109375 338.535156 Z M 825.109375 350.292969 " fill-opacity="1" fill-rule="evenodd"/></g><path fill="#454582" d="M 450.285156 306.621094 C 410.964844 306.621094 409.613281 362.777344 443.566406 362.777344 L 801.300781 362.777344 L 801.300781 338.535156 C 801.300781 320.988281 786.96875 306.621094 769.429688 306.621094 C 660.800781 306.621094 558.886719 306.621094 450.285156 306.621094 Z M 450.285156 306.621094 " fill-opacity="1" fill-rule="evenodd"/><path fill="#454582" d="M 773.308594 496.632812 C 773.308594 497.289062 773.277344 497.949219 773.210938 498.601562 C 773.148438 499.257812 773.050781 499.910156 772.921875 500.554688 C 772.792969 501.199219 772.632812 501.839844 772.441406 502.46875 C 772.25 503.097656 772.03125 503.71875 771.777344 504.328125 C 771.527344 504.933594 771.246094 505.53125 770.933594 506.109375 C 770.625 506.691406 770.289062 507.253906 769.921875 507.804688 C 769.554688 508.351562 769.164062 508.878906 768.746094 509.386719 C 768.328125 509.898438 767.886719 510.382812 767.421875 510.851562 C 766.957031 511.316406 766.46875 511.757812 765.960938 512.175781 C 765.453125 512.59375 764.925781 512.984375 764.378906 513.351562 C 763.828125 513.714844 763.265625 514.054688 762.6875 514.363281 C 762.105469 514.675781 761.511719 514.957031 760.902344 515.207031 C 760.292969 515.460938 759.675781 515.683594 759.046875 515.871094 C 758.417969 516.0625 757.777344 516.222656 757.132812 516.351562 C 756.488281 516.480469 755.835938 516.578125 755.183594 516.640625 C 754.527344 516.707031 753.871094 516.738281 753.210938 516.738281 C 752.554688 516.738281 751.898438 516.707031 751.242188 516.640625 C 750.585938 516.578125 749.9375 516.480469 749.292969 516.351562 C 748.644531 516.222656 748.007812 516.0625 747.378906 515.871094 C 746.75 515.683594 746.128906 515.460938 745.523438 515.207031 C 744.914062 514.957031 744.320312 514.675781 743.738281 514.363281 C 743.160156 514.054688 742.59375 513.714844 742.046875 513.351562 C 741.5 512.984375 740.972656 512.59375 740.464844 512.175781 C 739.953125 511.757812 739.46875 511.316406 739.003906 510.851562 C 738.535156 510.382812 738.09375 509.898438 737.679688 509.386719 C 737.261719 508.878906 736.867188 508.351562 736.503906 507.804688 C 736.136719 507.253906 735.800781 506.691406 735.488281 506.109375 C 735.179688 505.53125 734.898438 504.933594 734.644531 504.328125 C 734.394531 503.71875 734.171875 503.097656 733.980469 502.46875 C 733.789062 501.839844 733.632812 501.199219 733.503906 500.554688 C 733.375 499.910156 733.277344 499.257812 733.214844 498.601562 C 733.148438 497.949219 733.117188 497.289062 733.117188 496.632812 C 733.117188 495.972656 733.148438 495.316406 733.214844 494.660156 C 733.277344 494.007812 733.375 493.355469 733.503906 492.710938 C 733.632812 492.0625 733.789062 491.425781 733.980469 490.796875 C 734.171875 490.164062 734.394531 489.546875 734.644531 488.9375 C 734.898438 488.328125 735.179688 487.734375 735.488281 487.152344 C 735.800781 486.574219 736.136719 486.007812 736.503906 485.460938 C 736.867188 484.914062 737.261719 484.386719 737.679688 483.875 C 738.09375 483.367188 738.535156 482.878906 739.003906 482.414062 C 739.46875 481.949219 739.953125 481.507812 740.464844 481.089844 C 740.972656 480.671875 741.5 480.28125 742.046875 479.914062 C 742.59375 479.546875 743.160156 479.210938 743.738281 478.898438 C 744.320312 478.589844 744.914062 478.308594 745.523438 478.054688 C 746.128906 477.804688 746.75 477.582031 747.378906 477.390625 C 748.007812 477.199219 748.644531 477.039062 749.292969 476.914062 C 749.9375 476.785156 750.585938 476.6875 751.242188 476.621094 C 751.898438 476.558594 752.554688 476.527344 753.210938 476.527344 C 753.871094 476.527344 754.527344 476.558594 755.183594 476.621094 C 755.835938 476.6875 756.488281 476.785156 757.132812 476.914062 C 757.777344 477.039062 758.417969 477.199219 759.046875 477.390625 C 759.675781 477.582031 760.292969 477.804688 760.902344 478.054688 C 761.511719 478.308594 762.105469 478.589844 762.6875 478.898438 C 763.265625 479.210938 763.828125 479.546875 764.378906 479.914062 C 764.925781 480.28125 765.453125 480.671875 765.960938 481.089844 C 766.46875 481.507812 766.957031 481.949219 767.421875 482.414062 C 767.886719 482.878906 768.328125 483.367188 768.746094 483.875 C 769.164062 484.386719 769.554688 484.914062 769.921875 485.460938 C 770.289062 486.007812 770.625 486.574219 770.933594 487.152344 C 771.246094 487.734375 771.527344 488.328125 771.777344 488.9375 C 772.03125 489.546875 772.25 490.164062 772.441406 490.796875 C 772.632812 491.425781 772.792969 492.0625 772.921875 492.710938 C 773.050781 493.355469 773.148438 494.007812 773.210938 494.660156 C 773.277344 495.316406 773.308594 495.972656 773.308594 496.632812 Z M 773.308594 496.632812 " fill-opacity="1" fill-rule="nonzero"/><path fill="#454582" d="M 411.667969 338.535156 Z M 726.738281 449.21875 C 701.441406 449.21875 680.753906 469.917969 680.753906 495.226562 L 680.753906 498.011719 C 680.753906 523.320312 701.441406 544.015625 726.738281 544.015625 L 825.613281 544.015625 L 825.671875 449.21875 Z M 801.300781 370.425781 L 443.566406 370.425781 C 426.027344 370.425781 411.667969 356.085938 411.667969 338.535156 L 411.667969 605.292969 C 411.667969 631.667969 433.25 653.238281 459.617188 653.238281 L 791.972656 653.238281 C 818.335938 653.238281 839.863281 631.667969 839.890625 605.292969 L 840.003906 405.832031 C 840.03125 386.371094 824.097656 370.425781 804.648438 370.425781 Z M 801.300781 370.425781 " fill-opacity="1" fill-rule="evenodd"/></svg>