<svg xmlns="http://www.w3.org/2000/svg" xmlns:xlink="http://www.w3.org/1999/xlink" width="800" zoomAndPan="magnify" viewBox="0 0 600 599.999999" height="800" preserveAspectRatio="xMidYMid meet" version="1.0"><defs><clipPath id="id1"><path d="M 328.492188 133.472656 L 600 133.472656 L 600 300 L 328.492188 300 Z M 328.492188 133.472656 " clip-rule="nonzero"/></clipPath><clipPath id="id2"><path d="M 60.039062 280.6875 L 396 280.6875 L 396 526.484375 L 60.039062 526.484375 Z M 60.039062 280.6875 " clip-rule="nonzero"/></clipPath><clipPath id="id3"><path d="M 232 182 L 354.8125 182 L 354.8125 306 L 232 306 Z M 232 182 " clip-rule="nonzero"/></clipPath><clipPath id="id4"><path d="M 301.585938 142.113281 L 336.125 142.113281 L 336.125 197.613281 L 301.585938 197.613281 Z M 301.585938 142.113281 " clip-rule="nonzero"/></clipPath><clipPath id="id5"><path d="M 234.152344 142.113281 L 268.382812 142.113281 L 268.382812 197.613281 L 234.152344 197.613281 Z M 234.152344 142.113281 " clip-rule="nonzero"/></clipPath></defs><g clip-path="url(#id1)"><path fill="#121827" d="M 428.902344 152.105469 L 425.527344 146.398438 C 425.527344 146.398438 491.1875 153.785156 510.820312 209.976562 C 510.820312 209.976562 488.40625 154.140625 428.902344 152.105469 Z M 352.28125 212.832031 L 348.203125 209.976562 C 348.203125 209.976562 405.671875 184.097656 414.636719 155.367188 C 414.636719 155.367188 408.117188 188.785156 352.28125 212.832031 Z M 387.644531 137.96875 C 405.984375 139.191406 409.652344 149.582031 409.652344 149.582031 C 401.707031 170.367188 328.957031 207.050781 328.957031 207.050781 C 343.628906 218.054688 345.460938 249.84375 345.460938 249.84375 C 383.976562 220.5 411.691406 299.972656 411.691406 299.972656 C 430.035156 201.546875 474.675781 251.675781 474.675781 251.675781 C 474.609375 198.492188 524.65625 237.003906 524.65625 237.003906 C 518.308594 171.726562 600.003906 244.339844 600.003906 244.339844 C 518.078125 100.066406 387.644531 137.96875 387.644531 137.96875 " fill-opacity="1" fill-rule="nonzero"/></g><path fill="#121827" d="M 89.183594 209.976562 C 108.816406 153.785156 174.476562 146.398438 174.476562 146.398438 L 171.101562 152.105469 C 111.597656 154.140625 89.183594 209.976562 89.183594 209.976562 Z M 185.367188 155.367188 C 194.335938 184.097656 251.800781 209.976562 251.800781 209.976562 L 247.726562 212.832031 C 191.886719 188.785156 185.367188 155.367188 185.367188 155.367188 Z M 0 244.339844 C 0 244.339844 81.695312 171.726562 75.351562 237.003906 C 75.351562 237.003906 125.394531 198.492188 125.332031 251.675781 C 125.332031 251.675781 169.972656 201.546875 188.3125 299.972656 C 188.3125 299.972656 216.03125 220.5 254.542969 249.84375 C 254.542969 249.84375 256.378906 218.054688 271.050781 207.050781 C 271.050781 207.050781 198.300781 170.367188 190.351562 149.582031 C 190.351562 149.582031 194.023438 139.191406 212.363281 137.96875 C 212.363281 137.96875 81.925781 100.066406 0 244.339844 " fill-opacity="1" fill-rule="nonzero"/><g clip-path="url(#id2)"><path fill="#121827" d="M 395.675781 445.375 L 395.5625 443.898438 L 395.503906 443.160156 L 395.421875 442.421875 L 395.25 440.945312 C 395.179688 440.453125 395.101562 439.964844 395.023438 439.472656 C 394.882812 438.488281 394.667969 437.511719 394.472656 436.535156 C 394.429688 436.289062 394.371094 436.046875 394.308594 435.804688 L 394.132812 435.078125 L 393.953125 434.347656 C 393.894531 434.105469 393.835938 433.863281 393.761719 433.621094 C 393.226562 431.6875 392.605469 429.796875 391.886719 427.945312 C 391.171875 426.09375 390.355469 424.296875 389.472656 422.539062 C 389.246094 422.105469 389.03125 421.660156 388.792969 421.230469 L 388.089844 419.945312 L 387.355469 418.675781 C 387.109375 418.253906 386.847656 417.847656 386.59375 417.429688 C 385.5625 415.785156 384.476562 414.183594 383.328125 412.644531 C 382.183594 411.105469 380.984375 409.621094 379.75 408.183594 C 378.511719 406.746094 377.226562 405.367188 375.917969 404.027344 C 374.609375 402.6875 373.257812 401.40625 371.886719 400.164062 C 370.515625 398.921875 369.117188 397.71875 367.695312 396.558594 C 366.273438 395.402344 364.832031 394.277344 363.378906 393.195312 C 361.914062 392.113281 360.441406 391.0625 358.949219 390.046875 L 357.832031 389.289062 L 356.714844 388.558594 L 355.597656 387.832031 C 355.226562 387.585938 354.855469 387.34375 354.480469 387.113281 L 352.242188 385.707031 L 350 384.347656 C 347.019531 382.550781 344.039062 380.835938 341.089844 379.160156 L 332.378906 374.242188 C 329.515625 372.617188 326.734375 370.992188 324.019531 369.335938 C 322.65625 368.511719 321.339844 367.667969 320.015625 366.828125 L 318.070312 365.546875 C 317.746094 365.332031 317.433594 365.113281 317.117188 364.894531 L 316.167969 364.242188 C 315.851562 364.023438 315.527344 363.804688 315.226562 363.585938 L 314.308594 362.929688 C 313.707031 362.484375 313.097656 362.042969 312.507812 361.585938 C 311.320312 360.679688 310.15625 359.757812 309.03125 358.800781 C 307.90625 357.851562 306.808594 356.882812 305.746094 355.886719 C 304.691406 354.890625 303.671875 353.875 302.691406 352.84375 C 298.777344 348.699219 295.546875 344.21875 293.351562 339.570312 C 292.804688 338.410156 292.328125 337.238281 291.90625 336.0625 C 291.804688 335.765625 291.691406 335.472656 291.601562 335.179688 L 291.320312 334.292969 C 291.160156 333.695312 290.984375 333.105469 290.851562 332.511719 L 290.738281 332.0625 L 290.660156 331.65625 L 290.578125 331.25 L 290.535156 331.046875 L 290.503906 330.839844 L 290.375 330.011719 L 290.28125 329.171875 C 290.167969 328.042969 290.121094 326.902344 290.140625 325.75 C 290.175781 324.597656 290.273438 323.445312 290.4375 322.304688 L 290.574219 321.449219 L 290.742188 320.601562 C 290.789062 320.320312 290.871094 320.042969 290.933594 319.765625 L 291.03125 319.347656 C 291.066406 319.207031 291.109375 319.070312 291.148438 318.933594 L 291.261719 318.523438 C 291.296875 318.386719 291.335938 318.25 291.382812 318.117188 L 291.644531 317.308594 C 291.839844 316.78125 292.023438 316.253906 292.246094 315.746094 L 292.402344 315.363281 L 292.578125 314.992188 L 292.75 314.621094 L 292.835938 314.433594 L 292.925781 314.253906 C 293.054688 314.015625 293.175781 313.777344 293.296875 313.539062 C 293.433594 313.308594 293.566406 313.078125 293.695312 312.847656 C 294.234375 311.945312 294.820312 311.105469 295.441406 310.335938 C 296.0625 309.570312 296.730469 308.902344 297.414062 308.300781 C 297.75 307.992188 298.109375 307.734375 298.457031 307.464844 C 298.636719 307.34375 298.816406 307.222656 298.992188 307.09375 C 299.171875 306.976562 299.359375 306.875 299.535156 306.757812 C 300.265625 306.332031 301.015625 305.980469 301.785156 305.691406 L 291.617188 280.800781 C 286.992188 282.785156 282.742188 285.628906 279.273438 289.027344 C 277.53125 290.726562 275.945312 292.535156 274.550781 294.433594 C 273.15625 296.332031 271.929688 298.304688 270.855469 300.324219 L 270.078125 301.847656 L 269.371094 303.390625 L 269.195312 303.777344 L 268.714844 304.949219 L 268.398438 305.730469 L 268.113281 306.515625 C 267.71875 307.5625 267.390625 308.625 267.066406 309.6875 L 266.628906 311.285156 C 266.554688 311.550781 266.488281 311.820312 266.429688 312.085938 L 266.242188 312.894531 C 266.179688 313.160156 266.117188 313.429688 266.0625 313.699219 L 265.902344 314.503906 C 265.804688 315.046875 265.691406 315.582031 265.613281 316.125 C 265.53125 316.664062 265.449219 317.207031 265.375 317.75 L 265.1875 319.378906 C 264.976562 321.554688 264.894531 323.742188 264.933594 325.929688 C 264.992188 328.121094 265.179688 330.3125 265.503906 332.5 L 265.773438 334.136719 L 266.105469 335.769531 L 266.191406 336.175781 L 266.292969 336.585938 L 266.699219 338.210938 L 266.921875 338.972656 C 267.203125 339.996094 267.539062 340.992188 267.871094 341.996094 L 268.410156 343.476562 C 268.589844 343.96875 268.796875 344.449219 268.988281 344.9375 C 269.777344 346.871094 270.652344 348.757812 271.613281 350.574219 C 272.578125 352.394531 273.613281 354.148438 274.710938 355.84375 C 275.808594 357.539062 276.980469 359.160156 278.191406 360.726562 C 278.796875 361.515625 279.421875 362.273438 280.046875 363.03125 L 281 364.148438 C 281.320312 364.523438 281.648438 364.878906 281.972656 365.246094 C 283.277344 366.6875 284.617188 368.082031 285.992188 369.414062 C 287.367188 370.746094 288.773438 372.027344 290.203125 373.265625 C 291.632812 374.496094 293.089844 375.675781 294.566406 376.820312 C 296.042969 377.964844 297.539062 379.054688 299.054688 380.117188 C 299.8125 380.644531 300.578125 381.15625 301.339844 381.671875 L 302.492188 382.425781 C 302.875 382.679688 303.253906 382.910156 303.640625 383.15625 L 304.785156 383.875 C 305.167969 384.113281 305.550781 384.359375 305.933594 384.585938 L 308.234375 385.964844 C 309.765625 386.855469 311.300781 387.75 312.832031 388.589844 C 315.898438 390.285156 318.957031 391.902344 321.972656 393.449219 L 330.914062 398.019531 C 333.84375 399.519531 336.71875 401.019531 339.527344 402.554688 L 341.621094 403.707031 L 343.675781 404.882812 C 344.019531 405.074219 344.355469 405.273438 344.691406 405.472656 L 346.707031 406.675781 L 347.691406 407.277344 C 348.992188 408.09375 350.277344 408.925781 351.539062 409.78125 C 352.796875 410.636719 354.03125 411.515625 355.242188 412.417969 C 360.0625 416.03125 364.445312 420.035156 368.03125 424.449219 C 368.925781 425.550781 369.761719 426.683594 370.558594 427.835938 C 370.75 428.125 370.957031 428.410156 371.140625 428.703125 L 371.703125 429.578125 L 372.238281 430.46875 C 372.421875 430.761719 372.578125 431.066406 372.75 431.363281 C 373.421875 432.5625 374.042969 433.78125 374.585938 435.027344 C 375.128906 436.269531 375.605469 437.539062 376.015625 438.804688 C 376.074219 438.960938 376.121094 439.121094 376.164062 439.285156 L 376.304688 439.765625 L 376.449219 440.25 C 376.496094 440.410156 376.542969 440.570312 376.582031 440.734375 C 376.730469 441.390625 376.917969 442.039062 377.035156 442.707031 C 377.101562 443.039062 377.175781 443.367188 377.238281 443.699219 L 377.398438 444.707031 L 377.476562 445.210938 L 377.539062 445.71875 L 377.660156 446.738281 C 377.925781 449.464844 377.933594 452.25 377.691406 455.050781 C 377.425781 457.847656 376.929688 460.65625 376.183594 463.429688 C 375.429688 466.199219 374.464844 468.9375 373.273438 471.59375 C 372.078125 474.242188 370.6875 476.824219 369.101562 479.28125 C 367.507812 481.734375 365.738281 484.082031 363.796875 486.269531 L 363.058594 487.078125 C 362.933594 487.214844 362.816406 487.347656 362.6875 487.480469 L 362.296875 487.882812 L 361.519531 488.6875 L 360.722656 489.46875 C 360.199219 490 359.636719 490.492188 359.09375 491.007812 C 358.816406 491.261719 358.53125 491.503906 358.25 491.753906 C 357.96875 491.996094 357.695312 492.253906 357.402344 492.492188 C 356.824219 492.96875 356.253906 493.460938 355.65625 493.921875 C 355.363281 494.15625 355.070312 494.390625 354.769531 494.621094 L 353.863281 495.304688 L 353.410156 495.644531 L 352.949219 495.976562 L 352.027344 496.636719 L 351.085938 497.277344 C 350.769531 497.492188 350.460938 497.707031 350.136719 497.910156 C 345.042969 501.246094 339.492188 504.027344 333.675781 506.28125 C 327.855469 508.535156 321.773438 510.273438 315.5625 511.546875 L 314.394531 511.785156 L 313.226562 512.003906 C 312.449219 512.152344 311.664062 512.28125 310.878906 512.417969 C 310.488281 512.488281 310.097656 512.542969 309.707031 512.605469 C 309.316406 512.664062 308.925781 512.734375 308.53125 512.785156 C 307.75 512.894531 306.96875 513.015625 306.183594 513.105469 C 304.617188 513.308594 303.042969 513.457031 301.472656 513.597656 C 299.90625 513.71875 298.332031 513.828125 296.761719 513.878906 C 290.488281 514.113281 284.230469 513.734375 278.191406 512.578125 C 272.160156 511.398438 266.339844 509.4375 261.113281 506.46875 C 260.449219 506.113281 259.816406 505.710938 259.175781 505.324219 C 259.011719 505.226562 258.855469 505.125 258.699219 505.019531 L 257.761719 504.402344 L 257.527344 504.246094 L 257.300781 504.085938 C 256.691406 503.648438 256.074219 503.21875 255.488281 502.75 L 255.042969 502.410156 C 254.890625 502.296875 254.746094 502.179688 254.601562 502.058594 L 253.734375 501.335938 C 252.59375 500.355469 251.472656 499.335938 250.421875 498.242188 C 249.878906 497.710938 249.375 497.140625 248.855469 496.582031 C 248.597656 496.300781 248.355469 496.007812 248.105469 495.71875 C 247.855469 495.429688 247.601562 495.144531 247.363281 494.84375 L 246.636719 493.949219 C 246.398438 493.648438 246.167969 493.339844 245.933594 493.035156 L 245.585938 492.574219 C 245.46875 492.421875 245.359375 492.261719 245.246094 492.105469 L 244.566406 491.164062 L 243.585938 489.722656 L 243.273438 489.230469 L 242.644531 488.25 L 242.039062 487.246094 L 241.734375 486.746094 L 241.441406 486.234375 L 240.859375 485.214844 L 240.023438 483.660156 L 239.75 483.132812 L 239.214844 482.078125 L 238.699219 481.011719 L 238.441406 480.476562 L 237.695312 478.855469 C 235.121094 473.042969 233.101562 466.898438 231.492188 460.601562 C 229.871094 454.316406 228.671875 447.820312 227.503906 441.269531 C 226.34375 434.722656 225.230469 428.089844 223.871094 421.460938 L 223.339844 418.972656 L 223.074219 417.734375 C 222.980469 417.320312 222.878906 416.902344 222.785156 416.492188 L 222.203125 414.011719 C 222 413.183594 221.78125 412.355469 221.566406 411.535156 L 221.25 410.296875 C 221.140625 409.882812 221.019531 409.476562 220.902344 409.0625 L 220.199219 406.601562 C 219.949219 405.78125 219.683594 404.96875 219.429688 404.152344 L 219.039062 402.925781 C 218.90625 402.519531 218.757812 402.117188 218.617188 401.714844 L 217.757812 399.285156 C 217.453125 398.484375 217.132812 397.6875 216.820312 396.886719 L 216.347656 395.691406 C 216.179688 395.292969 216.007812 394.894531 215.835938 394.5 C 215.503906 393.703125 215.136719 392.921875 214.777344 392.140625 C 213.324219 389.011719 211.664062 385.988281 209.859375 383.066406 C 208.960938 381.597656 208.003906 380.175781 207.03125 378.761719 C 206.785156 378.410156 206.527344 378.066406 206.28125 377.714844 C 206.027344 377.371094 205.785156 377.015625 205.523438 376.675781 C 205.003906 375.996094 204.5 375.304688 203.960938 374.636719 C 201.84375 371.949219 199.59375 369.367188 197.207031 366.925781 C 194.820312 364.484375 192.3125 362.167969 189.699219 359.980469 C 187.085938 357.804688 184.363281 355.761719 181.554688 353.855469 C 178.746094 351.941406 175.839844 350.1875 172.863281 348.570312 C 169.886719 346.953125 166.835938 345.472656 163.71875 344.160156 C 160.601562 342.847656 157.429688 341.679688 154.207031 340.671875 C 150.980469 339.675781 147.710938 338.832031 144.410156 338.15625 C 141.109375 337.476562 137.773438 336.988281 134.429688 336.65625 C 133.59375 336.566406 132.753906 336.511719 131.914062 336.441406 C 131.5 336.40625 131.078125 336.390625 130.65625 336.367188 L 129.402344 336.296875 C 127.722656 336.238281 126.042969 336.195312 124.367188 336.222656 C 119.132812 336.277344 113.914062 336.800781 108.796875 337.785156 C 103.554688 329.695312 114.441406 320.179688 114.441406 320.179688 L 60.285156 337.871094 L 114.441406 355.558594 C 114.441406 355.558594 103.574219 346.058594 108.785156 337.972656 C 113.941406 337.203125 119.160156 336.894531 124.355469 337.0625 C 126.019531 337.105469 127.679688 337.214844 129.332031 337.347656 L 130.574219 337.464844 C 130.988281 337.507812 131.398438 337.542969 131.8125 337.59375 C 132.636719 337.695312 133.460938 337.78125 134.28125 337.910156 C 137.566406 338.375 140.828125 338.992188 144.042969 339.796875 C 147.253906 340.597656 150.425781 341.554688 153.539062 342.664062 C 156.652344 343.78125 159.707031 345.054688 162.6875 346.460938 C 165.675781 347.867188 168.578125 349.433594 171.40625 351.121094 C 174.230469 352.816406 176.976562 354.636719 179.613281 356.597656 C 182.25 358.554688 184.792969 360.632812 187.21875 362.835938 C 189.640625 365.042969 191.953125 367.363281 194.140625 369.796875 C 196.324219 372.226562 198.363281 374.777344 200.269531 377.417969 C 200.753906 378.070312 201.203125 378.75 201.671875 379.417969 C 201.90625 379.75 202.121094 380.09375 202.347656 380.429688 C 202.570312 380.773438 202.796875 381.109375 203.015625 381.449219 C 203.882812 382.828125 204.730469 384.210938 205.519531 385.632812 C 207.105469 388.460938 208.542969 391.367188 209.785156 394.355469 C 210.09375 395.101562 210.40625 395.847656 210.683594 396.605469 L 211.117188 397.738281 L 211.511719 398.886719 L 212.304688 401.191406 L 213.019531 403.523438 C 213.136719 403.910156 213.261719 404.296875 213.371094 404.6875 L 213.691406 405.867188 C 213.90625 406.652344 214.125 407.4375 214.328125 408.226562 L 214.902344 410.605469 C 214.996094 411.003906 215.097656 411.398438 215.183594 411.800781 L 215.441406 413 C 215.609375 413.800781 215.785156 414.597656 215.949219 415.402344 L 216.410156 417.820312 C 216.484375 418.226562 216.570312 418.625 216.636719 419.03125 L 216.847656 420.246094 L 217.261719 422.679688 C 218.3125 429.195312 219.140625 435.785156 220.03125 442.4375 C 220.472656 445.757812 220.953125 449.101562 221.472656 452.445312 L 221.886719 454.953125 C 221.957031 455.375 222.019531 455.789062 222.09375 456.210938 L 222.320312 457.472656 C 222.625 459.15625 222.949219 460.835938 223.308594 462.511719 C 224.730469 469.222656 226.605469 475.90625 229.175781 482.429688 L 229.671875 483.648438 L 229.917969 484.257812 L 230.703125 486.074219 L 231.257812 487.273438 L 231.53125 487.875 L 231.820312 488.472656 L 232.402344 489.667969 L 233.011719 490.847656 L 233.316406 491.441406 L 233.636719 492.023438 L 234.28125 493.195312 L 235.289062 494.929688 L 235.644531 495.5 L 236.351562 496.640625 L 237.09375 497.769531 C 237.214844 497.953125 237.335938 498.144531 237.464844 498.328125 L 237.851562 498.882812 C 238.109375 499.25 238.363281 499.625 238.628906 499.988281 L 239.4375 501.074219 C 239.703125 501.441406 239.988281 501.792969 240.269531 502.148438 C 240.550781 502.503906 240.828125 502.863281 241.117188 503.210938 C 241.707031 503.902344 242.285156 504.605469 242.902344 505.273438 C 244.113281 506.640625 245.410156 507.929688 246.75 509.183594 L 247.773438 510.109375 C 247.941406 510.261719 248.117188 510.414062 248.292969 510.558594 L 248.820312 511.003906 C 249.519531 511.605469 250.25 512.164062 250.976562 512.730469 L 251.25 512.945312 L 251.53125 513.144531 L 252.089844 513.550781 L 252.648438 513.953125 C 252.832031 514.09375 253.023438 514.226562 253.214844 514.351562 C 253.980469 514.863281 254.738281 515.382812 255.527344 515.859375 C 257.082031 516.839844 258.695312 517.714844 260.328125 518.550781 C 261.148438 518.949219 261.972656 519.363281 262.808594 519.726562 C 263.226562 519.910156 263.640625 520.105469 264.0625 520.28125 L 265.328125 520.800781 C 265.75 520.980469 266.175781 521.132812 266.601562 521.296875 C 267.027344 521.453125 267.449219 521.621094 267.882812 521.769531 C 268.742188 522.0625 269.597656 522.371094 270.464844 522.628906 C 272.195312 523.1875 273.941406 523.640625 275.695312 524.070312 C 282.71875 525.726562 289.863281 526.445312 296.941406 526.480469 C 298.714844 526.496094 300.480469 526.449219 302.242188 526.390625 C 304.007812 526.308594 305.769531 526.214844 307.523438 526.058594 C 308.398438 525.992188 309.273438 525.898438 310.148438 525.816406 C 310.585938 525.773438 311.023438 525.71875 311.460938 525.671875 C 311.894531 525.621094 312.335938 525.574219 312.769531 525.515625 C 313.636719 525.402344 314.503906 525.296875 315.371094 525.167969 L 316.671875 524.976562 L 317.972656 524.773438 C 324.902344 523.652344 331.792969 522.003906 338.539062 519.710938 C 345.28125 517.421875 351.882812 514.472656 358.132812 510.75 C 358.527344 510.519531 358.910156 510.277344 359.300781 510.039062 L 360.460938 509.316406 L 362.179688 508.191406 L 362.746094 507.804688 L 363.875 507.023438 C 364.25 506.761719 364.617188 506.488281 364.988281 506.21875 C 365.734375 505.691406 366.460938 505.121094 367.191406 504.566406 C 367.558594 504.289062 367.910156 503.992188 368.269531 503.707031 C 368.628906 503.414062 368.988281 503.128906 369.34375 502.832031 C 370.039062 502.230469 370.753906 501.644531 371.4375 501.019531 L 372.46875 500.089844 L 373.476562 499.136719 L 373.976562 498.65625 C 374.144531 498.496094 374.308594 498.324219 374.476562 498.160156 L 375.46875 497.160156 C 378.085938 494.460938 380.472656 491.554688 382.652344 488.496094 C 384.820312 485.429688 386.75 482.191406 388.445312 478.824219 C 390.132812 475.449219 391.550781 471.929688 392.707031 468.296875 C 393.851562 464.660156 394.695312 460.902344 395.21875 457.070312 C 395.722656 453.230469 395.894531 449.3125 395.675781 445.375 " fill-opacity="1" fill-rule="nonzero"/></g><path fill="#5048e4" d="M 351.113281 243.761719 L 350.546875 252.203125 C 347.855469 269.214844 339.980469 282.816406 326.921875 293.015625 C 313.773438 303.207031 298.289062 307.339844 280.472656 305.414062 C 263.46875 302.71875 249.867188 294.84375 239.671875 281.78125 C 236.40625 277.558594 233.714844 272.960938 231.601562 267.980469 L 228.933594 260.300781 C 227.472656 255.019531 226.730469 249.503906 226.714844 243.761719 C 227.160156 226.136719 233.230469 211.472656 244.929688 199.765625 C 256.632812 188.0625 271.292969 181.988281 288.914062 181.542969 C 306.535156 181.988281 321.195312 188.0625 332.894531 199.765625 C 344.597656 211.472656 350.667969 226.136719 351.113281 243.761719 " fill-opacity="1" fill-rule="nonzero"/><g clip-path="url(#id3)"><path fill="#5048e4" d="M 246.996094 280.011719 L 247.257812 280.34375 L 247.769531 280.984375 C 247.429688 280.609375 247.433594 280.632812 247.78125 281.050781 C 248.222656 281.59375 248.675781 282.132812 249.136719 282.664062 C 250.160156 283.824219 251.023438 284.75 251.722656 285.441406 C 253.308594 287.039062 254.980469 288.542969 256.742188 289.949219 C 260.144531 292.710938 264.078125 295.152344 268.539062 297.277344 C 266.101562 296.300781 263.695312 295.132812 261.320312 293.777344 C 260.679688 293.417969 260.042969 293.035156 259.410156 292.632812 C 258.589844 292.070312 257.566406 291.304688 256.34375 290.335938 C 253.902344 288.378906 251.628906 286.242188 249.527344 283.929688 C 248.285156 282.523438 247.441406 281.21875 246.996094 280.011719 M 316.246094 298.636719 L 315.855469 298.800781 C 314.746094 299.253906 313.746094 299.628906 312.859375 299.929688 C 313.082031 299.835938 313.316406 299.742188 313.5625 299.644531 C 313.695312 299.601562 314.09375 299.453125 314.757812 299.199219 C 314.890625 299.148438 315.285156 298.992188 315.9375 298.726562 C 316.589844 298.453125 316.980469 298.289062 317.109375 298.230469 C 317.242188 298.175781 317.628906 298 318.273438 297.707031 C 318.523438 297.589844 318.753906 297.492188 318.964844 297.414062 L 318.921875 297.445312 C 318.28125 297.746094 317.898438 297.925781 317.765625 297.980469 L 316.988281 298.328125 L 316.597656 298.496094 L 316.242188 298.644531 L 316.246094 298.636719 M 353.203125 236.277344 L 353.257812 236.707031 C 353.542969 238.929688 353.6875 241.304688 353.695312 243.839844 C 353.394531 239.042969 352.980469 235.359375 352.453125 232.789062 C 352.277344 232.0625 352.082031 231.339844 351.875 230.617188 C 352.683594 233.96875 352.964844 236.6875 352.71875 238.773438 C 352.285156 233.480469 351.03125 228.085938 348.957031 222.589844 C 346.515625 216.359375 343.25 210.804688 339.152344 205.921875 L 343.285156 212.160156 L 334.585938 202.273438 C 333.078125 200.804688 331.722656 199.585938 330.515625 198.617188 C 329.996094 198.191406 330.054688 198.261719 330.691406 198.824219 C 329.394531 197.753906 328.050781 196.738281 326.664062 195.785156 C 325.734375 195.144531 324.800781 194.539062 323.863281 193.96875 C 324.449219 194.359375 324.664062 194.539062 324.511719 194.511719 C 320.890625 192.539062 318.507812 191.320312 317.367188 190.847656 C 312.867188 189.144531 309.589844 188.0625 307.527344 187.605469 C 294.871094 184.917969 283.105469 185.738281 272.230469 190.0625 C 267.414062 191.839844 261.746094 195.121094 255.222656 199.90625 C 250.972656 203.59375 247.328125 207.804688 244.289062 212.535156 C 247.957031 206.15625 251.6875 201.53125 255.476562 198.652344 C 260.078125 194.734375 266.109375 191.160156 273.5625 187.9375 C 289.917969 182.417969 305.835938 183.589844 321.320312 191.449219 C 317.796875 189.542969 313.929688 187.980469 309.722656 186.761719 C 302.449219 184.730469 295.175781 184.054688 287.910156 184.726562 C 288.867188 184.460938 289.808594 184.277344 290.742188 184.183594 C 282.933594 184.863281 278.878906 185.46875 278.578125 186 C 265.207031 190.40625 254.75 197.332031 247.210938 206.78125 C 235.277344 220.726562 231.261719 237.472656 235.164062 257.015625 C 234.828125 254.964844 234.597656 252.90625 234.476562 250.839844 C 236.003906 263.335938 240.945312 274.296875 249.292969 283.714844 C 256.101562 291.234375 264.285156 296.683594 273.847656 300.066406 C 284.253906 303.667969 294.9375 304.335938 305.886719 302.070312 L 301.125 303.199219 L 301.550781 303.140625 C 311 301.828125 319.734375 298.394531 327.761719 292.839844 C 343.847656 281.035156 352.394531 264.773438 353.402344 244.050781 C 353.410156 251.941406 351.804688 259.972656 348.589844 268.132812 C 346.671875 274.074219 343.339844 279.597656 338.59375 284.703125 C 333.300781 290.4375 327.949219 294.589844 322.542969 297.15625 L 324.902344 295.953125 L 328.183594 294.054688 L 328.046875 294.160156 C 324.191406 296.824219 320.085938 299.011719 315.726562 300.730469 C 308.140625 304.652344 298.507812 306.152344 286.824219 305.234375 C 291.429688 305.722656 296.21875 305.703125 301.199219 305.179688 C 299.960938 305.5 298.136719 305.699219 295.726562 305.78125 L 297.585938 305.792969 C 287.089844 306.277344 279.351562 305.4375 274.375 303.277344 L 269.847656 301.390625 L 269.476562 301.160156 L 274.144531 302.683594 C 271.789062 301.90625 270.257812 301.292969 269.554688 300.847656 C 266.492188 299.367188 266.480469 299.257812 269.519531 300.515625 L 261.714844 296.59375 C 258.941406 294.921875 256.316406 293.039062 253.84375 290.953125 C 252.71875 290.003906 251.632812 289.019531 250.582031 287.992188 C 253.101562 290.148438 254.488281 291.214844 254.746094 291.195312 C 251.347656 288.40625 248.289062 285.289062 245.5625 281.839844 C 242.871094 278.546875 240.800781 275.429688 239.34375 272.484375 C 238.0625 270.402344 236.605469 266.722656 234.976562 261.453125 C 234.726562 260.613281 234.496094 259.765625 234.28125 258.917969 L 234.964844 260.425781 L 234.074219 256.796875 L 233.167969 251.765625 C 233.21875 252.421875 233.199219 252.394531 233.109375 251.6875 C 232.324219 245.78125 232.492188 239.507812 233.605469 232.871094 C 233.074219 235.753906 232.742188 238.636719 232.617188 241.515625 L 232.585938 241.679688 C 232.609375 241.097656 232.640625 240.515625 232.679688 239.9375 C 232.984375 235.71875 233.636719 231.835938 234.636719 228.285156 C 235.574219 221.503906 239.117188 213.996094 245.269531 205.753906 C 255.171875 193.410156 268.203125 185.871094 284.367188 183.128906 C 292.984375 181.941406 301.277344 182.421875 309.238281 184.558594 C 317.789062 187.375 324.929688 191.011719 330.664062 195.46875 C 337.175781 200.414062 342.589844 206.695312 346.910156 214.308594 C 349.304688 218.695312 351.089844 223.015625 352.269531 227.269531 C 353.234375 230.660156 353.902344 234.109375 354.273438 237.613281 C 354.617188 240.285156 354.542969 242.375 354.050781 243.886719 C 354.011719 241.71875 353.730469 239.179688 353.203125 236.277344 M 326.074219 294.375 L 326.386719 294.195312 C 327.011719 293.839844 327.632812 293.46875 328.242188 293.078125 L 330.8125 291.070312 L 332.476562 289.699219 C 333.144531 289.121094 333.777344 288.5625 334.367188 288.015625 C 334.371094 288 334.730469 287.707031 335.4375 287.140625 C 336.015625 286.550781 336.78125 285.664062 337.734375 284.484375 C 334.179688 288.351562 330.292969 291.648438 326.074219 294.375 M 234.570312 257.605469 L 234.628906 257.960938 C 234.796875 258.914062 234.984375 259.863281 235.199219 260.820312 C 235.367188 261.617188 235.527344 262.234375 235.679688 262.671875 C 236.09375 263.933594 236.425781 264.875 236.671875 265.496094 C 236.6875 265.394531 236.722656 265.328125 236.769531 265.296875 C 236.792969 265.28125 236.820312 265.277344 236.851562 265.28125 C 236.863281 265.273438 236.914062 265.300781 237.007812 265.363281 L 237.035156 265.34375 C 236.585938 264.128906 236.25 263.175781 236.035156 262.484375 C 235.988281 262.347656 235.863281 261.933594 235.652344 261.246094 L 234.917969 258.6875 C 234.746094 258.128906 234.632812 257.769531 234.570312 257.605469 M 310.773438 185.367188 L 310.351562 185.246094 C 306.683594 184.1875 302.949219 183.480469 299.152344 183.121094 C 298.417969 183.046875 297.394531 182.976562 296.085938 182.910156 C 294.910156 182.859375 293.738281 182.84375 292.582031 182.859375 C 291.851562 182.871094 291.410156 182.882812 291.261719 182.890625 C 291.203125 182.90625 291.210938 182.929688 291.292969 182.957031 L 291.117188 182.992188 C 290.980469 183.003906 290.589844 183.039062 289.941406 183.101562 C 289.339844 183.234375 289.039062 183.300781 289.03125 183.296875 C 290.746094 183.171875 292.476562 183.121094 294.226562 183.144531 C 296.121094 183.183594 297.722656 183.265625 299.03125 183.398438 C 300.480469 183.53125 301.921875 183.71875 303.359375 183.957031 C 305.226562 184.277344 306.796875 184.601562 308.066406 184.929688 L 308.410156 184.992188 C 308.996094 185.042969 309.433594 185.09375 309.722656 185.148438 C 310.128906 185.222656 310.476562 185.292969 310.773438 185.367188 M 313.316406 188.914062 L 312.992188 188.78125 C 308.984375 187.289062 304.511719 186.261719 299.578125 185.707031 C 298.457031 185.589844 297.339844 185.503906 296.222656 185.449219 C 295.234375 185.394531 293.972656 185.375 292.441406 185.390625 C 290.195312 185.429688 287.957031 185.59375 285.726562 185.890625 C 286.261719 185.847656 287.078125 185.800781 288.179688 185.746094 C 288.945312 185.621094 289.585938 185.550781 290.101562 185.523438 C 290.824219 185.476562 291.8125 185.445312 293.066406 185.429688 C 295.304688 185.417969 297.542969 185.53125 299.773438 185.777344 C 304.65625 186.34375 309.171875 187.386719 313.316406 188.914062 " fill-opacity="1" fill-rule="nonzero"/></g><path fill="#5048e4" d="M 239.324219 279.988281 L 239.570312 280.332031 C 240.160156 281.125 240.234375 281.242188 239.789062 280.6875 C 239.957031 280.914062 240.121094 281.140625 240.292969 281.367188 L 241.585938 283.035156 C 242.195312 283.808594 243.019531 284.769531 244.058594 285.921875 C 245.871094 287.886719 247.582031 289.554688 249.191406 290.925781 C 252.953125 294.136719 256.785156 296.730469 260.691406 298.710938 C 258.195312 297.59375 255.808594 296.3125 253.527344 294.871094 C 252.90625 294.480469 252.289062 294.074219 251.675781 293.652344 C 250.550781 292.796875 249.453125 291.898438 248.386719 290.957031 C 246.042969 288.886719 243.867188 286.648438 241.863281 284.242188 C 240.671875 282.820312 239.828125 281.402344 239.324219 279.988281 M 309.820312 300.238281 L 309.433594 300.414062 C 308.402344 300.878906 307.359375 301.3125 306.296875 301.714844 L 306.9375 301.425781 C 307.464844 301.21875 307.988281 301.003906 308.507812 300.78125 C 309.152344 300.5 309.539062 300.328125 309.667969 300.269531 C 310.445312 299.914062 311.210938 299.546875 311.964844 299.164062 L 312.632812 298.855469 C 312.367188 299.003906 311.941406 299.222656 311.359375 299.511719 C 310.851562 299.765625 310.339844 300.007812 309.820312 300.238281 M 346.316406 234.304688 L 346.367188 234.734375 C 346.625 236.886719 346.765625 239.332031 346.792969 242.070312 C 346.449219 236.734375 346.039062 232.878906 345.558594 230.507812 C 345.390625 229.78125 345.210938 229.054688 345.015625 228.328125 C 345.804688 231.878906 346.074219 234.695312 345.832031 236.785156 C 345.320312 230.960938 344.113281 225.363281 342.214844 219.992188 C 339.824219 213.367188 336.652344 207.492188 332.703125 202.367188 C 333.714844 203.800781 335.070312 206.03125 336.769531 209.066406 L 331.070312 201.734375 C 330.101562 200.527344 329.089844 199.363281 328.035156 198.234375 C 326.585938 196.703125 325.28125 195.425781 324.117188 194.40625 C 323.625 193.949219 323.699219 194.035156 324.335938 194.664062 C 322.761719 193.265625 321.351562 192.109375 320.109375 191.195312 L 317.707031 189.492188 C 318.214844 189.886719 318.339844 190.019531 318.082031 189.898438 C 314.667969 187.84375 312.214844 186.46875 310.71875 185.773438 C 306.296875 183.945312 303.054688 182.777344 300.992188 182.265625 C 288.128906 179.226562 276.152344 180.058594 265.0625 184.761719 C 260.117188 186.671875 254.246094 190.367188 247.441406 195.84375 C 243.128906 199.976562 239.535156 204.511719 236.667969 209.453125 C 240.148438 202.777344 243.816406 197.8125 247.667969 194.554688 C 250.296875 192.179688 252.867188 190.1875 255.378906 188.578125 L 262.117188 184.574219 C 262.535156 184.34375 262.957031 184.121094 263.386719 183.902344 L 266.074219 182.746094 L 265.875 182.785156 C 282.929688 176.589844 299.316406 177.898438 315.035156 186.710938 C 311.175781 184.445312 307.042969 182.644531 302.628906 181.304688 C 295.445312 179.148438 288.125 178.445312 280.667969 179.1875 C 281.402344 178.941406 282.394531 178.746094 283.636719 178.597656 C 275.445312 179.382812 271.113281 180.113281 270.652344 180.789062 C 257.441406 185.640625 247.230469 192.929688 240.019531 202.652344 C 228.003906 217.992188 223.960938 235.71875 227.894531 255.832031 C 227.554688 253.570312 227.335938 251.398438 227.234375 249.316406 C 228.648438 262.402344 233.503906 274.042969 241.8125 284.230469 C 248.507812 292.261719 256.722656 298.152344 266.460938 301.910156 C 277.097656 305.878906 288.011719 306.597656 299.207031 304.066406 L 297.148438 304.640625 L 294.355469 305.285156 L 294.554688 305.261719 C 303.996094 303.835938 312.65625 300.242188 320.535156 294.480469 C 336.863281 281.804688 345.511719 264.449219 346.476562 242.410156 C 346.53125 250.566406 344.90625 259.179688 341.613281 268.246094 C 340.191406 273.5625 336.792969 279.429688 331.417969 285.851562 C 326.554688 291.449219 321.492188 295.644531 316.222656 298.4375 C 318.035156 297.488281 319.914062 296.351562 321.863281 295.027344 C 321.539062 295.292969 320.960938 295.722656 320.125 296.316406 C 316.054688 299.21875 311.171875 301.789062 305.476562 304.019531 C 298.359375 307.171875 289.742188 308.289062 279.617188 307.359375 C 284.085938 307.910156 289.023438 307.882812 294.421875 307.277344 C 293.273438 307.613281 291.328125 307.832031 288.582031 307.9375 L 290.523438 307.949219 C 279.703125 308.441406 271.703125 307.457031 266.519531 304.992188 L 262.039062 302.957031 L 261.691406 302.722656 L 266.386719 304.433594 L 262.046875 302.554688 C 258.699219 300.792969 258.59375 300.632812 261.730469 302.074219 L 254.589844 298.210938 C 251.863281 296.464844 249.289062 294.519531 246.871094 292.371094 C 245.652344 291.304688 244.285156 289.976562 242.769531 288.378906 C 245.398438 290.820312 246.804688 292.019531 246.996094 291.96875 C 243.820312 289.132812 240.910156 285.933594 238.265625 282.375 C 235.167969 278.164062 233.117188 274.875 232.113281 272.511719 C 230.546875 269.589844 229.074219 265.621094 227.703125 260.597656 L 226.953125 257.628906 L 227.625 259.257812 L 226.738281 255.253906 L 225.914062 250.21875 C 225.980469 251.058594 225.960938 251.050781 225.867188 250.199219 C 225.132812 243.910156 225.292969 237.449219 226.335938 230.816406 C 225.890625 233.253906 225.566406 236.296875 225.371094 239.953125 L 225.703125 235.164062 C 226.03125 231.445312 227.175781 225.949219 229.140625 218.667969 C 230.746094 213.535156 233.667969 207.925781 237.90625 201.839844 C 248.066406 188.515625 261.113281 180.441406 277.046875 177.621094 C 285.53125 176.289062 293.964844 176.792969 302.351562 179.140625 C 311.214844 182.296875 318.371094 186.179688 323.824219 190.792969 C 330.6875 196.464844 336.152344 203.257812 340.214844 211.175781 C 342.320312 215.210938 344.046875 219.707031 345.394531 224.660156 C 346.371094 228.339844 347.039062 232.078125 347.394531 235.871094 C 347.707031 238.429688 347.621094 240.578125 347.136719 242.316406 C 347.132812 240.253906 346.859375 237.582031 346.316406 234.304688 M 319.785156 295.429688 L 320.089844 295.238281 C 320.699219 294.851562 321.304688 294.453125 321.902344 294.039062 L 324.695312 291.660156 L 326.289062 290.210938 L 328.09375 288.453125 L 329.121094 287.53125 C 329.644531 286.953125 330.402344 285.996094 331.398438 284.65625 C 327.871094 288.859375 324 292.449219 319.785156 295.429688 M 227.273438 256.359375 L 227.328125 256.71875 C 227.539062 258.03125 227.734375 259.105469 227.910156 259.941406 C 228.035156 260.535156 228.113281 260.890625 228.140625 261.007812 C 228.214844 261.28125 228.296875 261.558594 228.378906 261.839844 C 228.777344 263.15625 229.074219 264.054688 229.265625 264.539062 C 229.308594 264.398438 229.355469 264.332031 229.402344 264.347656 L 229.492188 264.363281 L 229.632812 264.4375 C 229.257812 263.351562 228.910156 262.25 228.585938 261.136719 C 228.546875 261 228.429688 260.585938 228.242188 259.890625 L 227.671875 257.71875 C 227.527344 257.1875 227.394531 256.734375 227.273438 256.359375 M 304.261719 180.101562 L 303.84375 179.96875 C 301.886719 179.351562 299.902344 178.835938 297.890625 178.429688 C 295.734375 178.003906 293.855469 177.71875 292.246094 177.566406 C 291.511719 177.484375 290.492188 177.40625 289.179688 177.335938 C 288 177.277344 286.832031 177.253906 285.671875 177.269531 C 285.050781 177.277344 284.5 177.292969 284.023438 177.320312 C 284.109375 177.339844 284.15625 177.363281 284.164062 177.390625 C 283.160156 177.484375 282.664062 177.535156 282.667969 177.539062 L 281.847656 177.730469 C 285.332031 177.453125 288.824219 177.5 292.316406 177.863281 C 293.628906 177.988281 295.214844 178.21875 297.078125 178.558594 C 298.371094 178.796875 299.925781 179.15625 301.742188 179.640625 C 302.628906 179.726562 303.46875 179.878906 304.261719 180.101562 M 306.816406 183.757812 L 306.5 183.617188 C 302.144531 181.882812 297.566406 180.734375 292.769531 180.167969 C 288.023438 179.617188 283.277344 179.675781 278.527344 180.351562 C 279.335938 180.289062 280.089844 180.238281 280.785156 180.203125 C 281.371094 180.097656 282.136719 180.007812 283.085938 179.941406 C 283.796875 179.890625 284.777344 179.859375 286.03125 179.84375 C 288.6875 179.847656 291.058594 179.988281 293.144531 180.261719 C 297.941406 180.871094 302.496094 182.039062 306.816406 183.757812 " fill-opacity="1" fill-rule="nonzero"/><path fill="#5048e4" d="M 240.8125 277.644531 L 241.03125 278.007812 L 241.449219 278.695312 C 241.171875 278.300781 241.175781 278.328125 241.464844 278.78125 L 242.605469 280.558594 C 243.472656 281.84375 244.207031 282.878906 244.808594 283.65625 C 246.4375 285.78125 247.992188 287.59375 249.476562 289.097656 C 252.699219 292.398438 256.105469 295.15625 259.683594 297.367188 C 257.648438 296.273438 255.492188 294.878906 253.222656 293.1875 C 252.632812 292.738281 252.054688 292.28125 251.484375 291.816406 C 250.746094 291.15625 249.835938 290.265625 248.753906 289.144531 C 246.597656 286.878906 244.628906 284.460938 242.84375 281.886719 C 241.78125 280.320312 241.105469 278.90625 240.8125 277.644531 M 306.011719 298.984375 L 305.640625 299.183594 C 304.574219 299.757812 303.632812 300.226562 302.820312 300.585938 C 303.035156 300.472656 303.261719 300.355469 303.5 300.234375 C 304.128906 299.929688 304.507812 299.742188 304.632812 299.671875 C 305.261719 299.347656 305.636719 299.148438 305.761719 299.078125 C 305.882812 299.015625 306.25 298.808594 306.863281 298.460938 C 307.472656 298.101562 307.835938 297.886719 307.957031 297.808594 L 308.601562 297.449219 C 307.8125 297.957031 306.949219 298.46875 306.011719 298.984375 M 337.820312 233.035156 L 337.863281 233.46875 C 338.109375 236.292969 338.21875 238.640625 338.1875 240.511719 C 337.867188 235.121094 337.53125 231.429688 337.179688 229.4375 C 337.03125 228.699219 336.871094 227.96875 336.703125 227.246094 C 337.34375 230.46875 337.539062 233.191406 337.285156 235.417969 C 336.8125 229.4375 335.808594 223.929688 334.269531 218.894531 C 332.492188 212.878906 329.882812 207.132812 326.445312 201.664062 L 329.738281 208.28125 C 325.363281 201.511719 322.796875 197.742188 322.039062 196.980469 C 320.714844 195.324219 319.527344 193.957031 318.476562 192.871094 C 318.972656 193.453125 319.105469 193.621094 318.882812 193.375 C 317.441406 191.84375 316.136719 190.570312 314.976562 189.558594 C 314.34375 189 313.703125 188.460938 313.050781 187.9375 L 313.617188 188.550781 C 310.40625 186.210938 308.09375 184.648438 306.675781 183.867188 C 302.746094 181.890625 299.71875 180.578125 297.597656 179.929688 C 285.785156 176.519531 274.660156 177.382812 264.21875 182.515625 C 259.339844 184.785156 253.894531 188.851562 247.878906 194.707031 C 244.179688 198.9375 241.097656 203.59375 238.632812 208.671875 C 242.960938 197.105469 251.617188 187.757812 264.601562 180.632812 C 280.714844 173.734375 296.117188 175.210938 310.800781 185.066406 C 306.792969 182.300781 302.757812 180.226562 298.699219 178.84375 C 292.1875 176.574219 285.425781 175.835938 278.417969 176.625 C 279.363281 176.328125 280.308594 176.128906 281.246094 176.023438 C 277.597656 176.230469 273.882812 176.902344 270.101562 178.039062 C 258.164062 182.976562 248.953125 190.320312 242.46875 200.070312 C 236.722656 209.539062 233.289062 216.640625 232.171875 221.371094 C 229.75 233.171875 229.410156 243.941406 231.148438 253.679688 C 230.917969 251.636719 230.773438 249.59375 230.707031 247.554688 C 232.027344 261.175781 236.375 273.058594 243.746094 283.203125 C 249.605469 291.25 256.933594 297.242188 265.722656 301.171875 C 275.511719 305.410156 285.675781 306.09375 296.207031 303.226562 C 294.667969 303.773438 293.078125 304.242188 291.441406 304.632812 C 299.808594 303.1875 307.53125 299.519531 314.617188 293.632812 C 329.152344 280.980469 336.914062 263.355469 337.902344 240.753906 C 338.003906 248.523438 336.566406 257.339844 333.585938 267.203125 C 332.695312 271.648438 329.753906 277.410156 324.753906 284.484375 C 320.546875 290.023438 316.335938 294.109375 312.121094 296.746094 C 313.683594 295.765625 315.40625 294.507812 317.285156 292.976562 L 314.355469 295.488281 C 311.125 298.171875 306.695312 300.832031 301.0625 303.46875 C 293.550781 306.804688 285.601562 307.882812 277.21875 306.707031 C 281.84375 307.363281 286.648438 307.332031 291.628906 306.613281 C 290.277344 307.003906 288.441406 307.25 286.121094 307.347656 L 287.917969 307.34375 C 277.894531 307.832031 270.5625 306.839844 265.925781 304.375 L 260.425781 301.515625 C 260.238281 301.378906 260.234375 301.351562 260.414062 301.429688 L 263.5625 302.953125 L 264.710938 303.332031 C 262.449219 302.324219 261.125 301.644531 260.730469 301.292969 C 257.535156 299.28125 257.421875 299.097656 260.394531 300.746094 L 254.847656 297.246094 C 252.464844 295.5 250.238281 293.582031 248.164062 291.496094 C 246.546875 289.882812 244.945312 288.070312 243.359375 286.054688 C 245.585938 288.53125 246.824219 289.785156 247.085938 289.824219 C 242.542969 285.035156 238.507812 278.910156 234.976562 271.453125 C 233.148438 267.320312 231.828125 263.296875 231.007812 259.378906 L 230.167969 255.542969 L 230.761719 257.082031 L 230.070312 253.382812 L 229.363281 248.328125 C 229.410156 249.191406 229.390625 249.160156 229.308594 248.238281 C 228.726562 242.253906 228.851562 236.082031 229.679688 229.722656 C 229.304688 232.207031 229.046875 235.121094 228.902344 238.472656 L 229.171875 233.789062 C 229.300781 231.164062 230.242188 225.675781 232 217.328125 C 233.515625 211.9375 236.175781 206.121094 239.980469 199.871094 C 249.585938 185.574219 262.027344 177.207031 277.304688 174.777344 C 284.640625 173.703125 292.089844 174.464844 299.648438 177.0625 C 307.40625 180.445312 313.664062 184.488281 318.421875 189.191406 C 324.246094 194.722656 329.027344 201.664062 332.773438 210.019531 C 334.769531 214.585938 336.292969 219.300781 337.34375 224.167969 C 338.207031 228.183594 338.753906 232.214844 338.980469 236.265625 C 339.070312 237.902344 338.929688 239.390625 338.554688 240.722656 C 338.574219 239.15625 338.328125 236.59375 337.820312 233.035156 M 315.175781 293.617188 L 315.464844 293.398438 C 316.417969 292.660156 316.980469 292.210938 317.15625 292.042969 L 319.4375 289.707031 L 320.898438 288.121094 L 321.183594 287.796875 C 322.21875 286.546875 322.988281 285.675781 323.488281 285.183594 C 323.523438 285.164062 323.800781 284.753906 324.324219 283.957031 C 324.585938 283.550781 324.84375 283.144531 325.097656 282.734375 L 325.277344 282.417969 C 322.210938 286.773438 318.847656 290.503906 315.175781 293.617188 M 230.527344 254.253906 L 230.570312 254.613281 C 230.710938 255.816406 230.882812 257.015625 231.085938 258.214844 C 231.121094 258.445312 231.167969 258.695312 231.226562 258.960938 L 231.433594 259.804688 C 231.578125 260.363281 231.726562 260.925781 231.882812 261.484375 C 231.96875 261.808594 232.039062 262.042969 232.09375 262.199219 C 232.121094 262.105469 232.15625 262.042969 232.210938 262.019531 C 232.242188 261.980469 232.324219 262.011719 232.445312 262.113281 L 232.441406 262.003906 C 232.234375 261.308594 231.976562 260.332031 231.664062 259.078125 C 231.492188 258.375 231.394531 257.953125 231.363281 257.8125 C 231.144531 256.792969 230.980469 256.0625 230.878906 255.628906 C 230.753906 255.078125 230.636719 254.617188 230.527344 254.253906 M 300.988281 177.949219 L 300.578125 177.789062 C 296.988281 176.421875 293.285156 175.503906 289.46875 175.027344 C 287.421875 174.777344 285.371094 174.664062 283.308594 174.6875 C 282.71875 174.691406 282.132812 174.710938 281.554688 174.738281 C 281.644531 174.761719 281.699219 174.785156 281.710938 174.8125 C 280.738281 174.917969 280.253906 174.972656 280.257812 174.980469 L 279.601562 175.144531 L 279.578125 175.167969 C 281.332031 175.003906 283.082031 174.941406 284.828125 174.980469 C 285.269531 174.984375 286 175.015625 287.019531 175.082031 C 287.898438 175.140625 288.773438 175.226562 289.640625 175.339844 C 290.953125 175.492188 292.535156 175.777344 294.390625 176.195312 C 295.824219 176.535156 297.222656 176.929688 298.589844 177.378906 C 299.507812 177.519531 300.308594 177.707031 300.988281 177.949219 M 303.179688 181.703125 L 302.875 181.542969 C 300.941406 180.597656 298.890625 179.800781 296.722656 179.144531 C 294.183594 178.394531 291.875 177.886719 289.792969 177.621094 C 287.585938 177.320312 285.367188 177.183594 283.144531 177.21875 C 280.964844 177.242188 278.695312 177.457031 276.339844 177.863281 C 277.0625 177.78125 277.785156 177.714844 278.507812 177.664062 C 279.234375 177.53125 279.847656 177.445312 280.347656 177.402344 C 281.074219 177.332031 282.058594 177.285156 283.300781 177.265625 C 285.523438 177.238281 287.738281 177.378906 289.945312 177.691406 C 292.023438 177.964844 294.328125 178.480469 296.859375 179.238281 C 298.960938 179.878906 301.070312 180.703125 303.179688 181.703125 " fill-opacity="1" fill-rule="nonzero"/><path fill="#5048e4" d="M 323.9375 294.757812 L 324.269531 294.496094 C 325.050781 293.863281 325.152344 293.796875 324.570312 294.296875 C 324.792969 294.121094 325.011719 293.945312 325.230469 293.769531 L 326.84375 292.40625 C 327.589844 291.761719 328.519531 290.898438 329.628906 289.820312 C 331.4375 288.035156 333.132812 286.152344 334.714844 284.167969 C 337.640625 280.546875 340.25 276.355469 342.535156 271.601562 C 340.121094 277.324219 337.566406 281.738281 334.878906 284.84375 C 332.628906 287.59375 330.386719 289.96875 328.160156 291.96875 C 326.855469 293.175781 325.449219 294.105469 323.9375 294.757812 M 344.027344 219.917969 L 344.191406 220.308594 C 344.402344 220.832031 344.613281 221.359375 344.816406 221.890625 C 345.0625 222.558594 345.210938 222.957031 345.253906 223.089844 L 345.398438 223.488281 L 345.382812 223.476562 C 345.289062 223.257812 345.195312 223.019531 345.097656 222.761719 C 344.851562 222.097656 344.703125 221.699219 344.652344 221.566406 C 344.601562 221.433594 344.445312 221.035156 344.179688 220.382812 C 343.910156 219.730469 343.742188 219.339844 343.683594 219.207031 C 343.460938 218.6875 343.226562 218.167969 342.988281 217.65625 L 342.699219 216.972656 C 343.015625 217.582031 343.457031 218.5625 344.027344 219.917969 M 276.707031 180.082031 L 277.136719 180.027344 C 279.71875 179.710938 282.308594 179.546875 284.902344 179.539062 C 279.5625 179.867188 275.519531 180.328125 272.777344 180.914062 C 272.054688 181.09375 271.328125 181.285156 270.605469 181.488281 C 274.246094 180.621094 277.160156 180.308594 279.355469 180.550781 C 273.777344 181.011719 268.101562 182.316406 262.320312 184.457031 C 255.59375 187.015625 249.464844 190.59375 243.9375 195.191406 C 245.488281 194.003906 247.730469 192.503906 250.664062 190.695312 L 240.003906 200.019531 C 238.617188 201.421875 237.304688 202.886719 236.054688 204.410156 C 235.46875 205.113281 235.480469 205.125 236.09375 204.4375 C 235.023438 205.746094 234.007812 207.089844 233.046875 208.476562 L 230.980469 211.65625 L 231.617188 210.839844 C 229.527344 214.652344 228.179688 217.265625 227.578125 218.683594 C 225.773438 223.414062 224.601562 226.957031 224.066406 229.308594 C 221.117188 242.640625 222 255.375 226.714844 267.523438 C 228.738281 272.914062 232.285156 279.03125 237.363281 285.871094 C 241.511719 290.609375 246.074219 294.566406 251.046875 297.730469 C 239.964844 292.15625 231.105469 281.542969 224.472656 265.886719 C 218.578125 248.269531 219.863281 231.109375 228.328125 214.402344 C 226.179688 218.449219 224.484375 222.671875 223.234375 227.078125 C 221.066406 234.953125 220.339844 242.757812 221.058594 250.492188 C 220.816406 249.632812 220.628906 248.597656 220.5 247.382812 C 221.195312 255.84375 221.960938 260.585938 222.792969 261.609375 C 227.410156 275.429688 234.820312 286.433594 245.03125 294.628906 C 260.027344 307.351562 278.039062 311.632812 299.070312 307.472656 C 296.761719 307.855469 294.515625 308.117188 292.328125 308.257812 C 306.023438 306.53125 317.859375 301.210938 327.839844 292.300781 C 336.019531 284.90625 341.941406 276.007812 345.597656 265.601562 C 349.457031 254.296875 350.164062 242.8125 347.714844 231.140625 C 348.167969 232.753906 348.566406 234.441406 348.90625 236.203125 L 348.847656 235.777344 C 347.320312 225.328125 343.636719 215.929688 337.789062 207.582031 C 325.203125 190.234375 307.640625 180.988281 285.101562 179.84375 C 293.527344 179.828125 302.09375 181.535156 310.8125 184.960938 C 317.496094 187.179688 323.570312 190.855469 329.03125 195.992188 C 335.210938 201.75 339.664062 207.515625 342.386719 213.289062 C 341.234375 210.941406 340.078125 208.855469 338.917969 207.027344 L 339.847656 208.390625 C 342.824219 212.871094 345.347656 217.988281 347.421875 223.742188 C 350.660156 230.96875 351.839844 240.285156 350.957031 251.691406 C 351.488281 246.957031 351.46875 241.777344 350.898438 236.15625 C 351.21875 237.378906 351.425781 239.355469 351.519531 242.089844 L 351.539062 240.203125 C 352.039062 251.402344 351.113281 259.738281 348.761719 265.203125 L 346.738281 270.0625 L 346.535156 270.363281 C 347.726562 267.242188 348.273438 265.589844 348.175781 265.40625 L 346.195312 270.359375 C 344.679688 273.46875 344.574219 273.472656 345.875 270.371094 L 341.808594 278.507812 C 340 281.535156 337.960938 284.398438 335.691406 287.101562 C 331.261719 292.21875 331.367188 291.886719 336.011719 286.105469 C 332.84375 289.941406 329.535156 293.21875 326.085938 295.9375 C 322.164062 299.097656 318.839844 301.335938 316.121094 302.648438 C 313.1875 304.332031 309.335938 305.898438 304.566406 307.351562 L 301.035156 308.339844 L 302.65625 307.621094 L 298.851562 308.5625 C 297.824219 308.800781 296.007812 309.125 293.410156 309.546875 C 294.039062 309.507812 294.058594 309.519531 293.460938 309.585938 C 286.910156 310.445312 280.132812 310.277344 273.128906 309.078125 C 276.316406 309.65625 279.46875 310.015625 282.582031 310.15625 L 280.988281 310.082031 C 276.617188 309.816406 272.316406 309.105469 268.085938 307.949219 C 261.003906 307 252.910156 303.152344 243.808594 296.414062 C 230.554688 285.738281 222.453125 271.730469 219.507812 254.386719 C 217.054688 235.566406 221.457031 218.9375 232.714844 204.507812 C 238.320312 197.214844 245.140625 191.335938 253.175781 186.867188 C 257.550781 184.453125 262.132812 182.554688 266.929688 181.179688 C 270.742188 180.117188 274.324219 179.40625 277.683594 179.050781 C 280.671875 178.636719 283.109375 178.675781 284.988281 179.167969 C 282.34375 179.257812 279.582031 179.5625 276.707031 180.082031 M 339.371094 209.339844 L 339.1875 209.023438 C 338.398438 207.675781 337.953125 206.957031 337.859375 206.875 C 336.398438 204.953125 335.179688 203.425781 334.199219 202.292969 C 333.621094 201.625 333.0625 200.996094 332.515625 200.40625 L 331.363281 199.042969 C 330.453125 198.214844 329.550781 197.4375 328.652344 196.710938 C 332.660156 200.339844 336.234375 204.546875 339.371094 209.339844 M 299.699219 308.0625 L 300.058594 307.996094 C 301.007812 307.828125 301.957031 307.636719 302.910156 307.421875 C 304.0625 307.167969 304.796875 306.976562 305.113281 306.855469 C 306.839844 306.28125 307.863281 305.921875 308.175781 305.769531 C 307.9375 305.722656 307.910156 305.601562 308.097656 305.402344 C 306.746094 305.894531 305.5625 306.300781 304.546875 306.617188 C 303.859375 306.832031 303.449219 306.957031 303.308594 306.992188 L 300.757812 307.726562 C 300.210938 307.890625 299.859375 308 299.699219 308.0625 M 221.882812 225.878906 L 221.761719 226.296875 C 220.621094 230.242188 219.859375 234.257812 219.46875 238.34375 C 219.25 240.679688 219.152344 243.011719 219.179688 245.347656 C 219.183594 245.960938 219.199219 246.515625 219.226562 247.011719 C 219.246094 246.925781 219.269531 246.875 219.292969 246.863281 L 219.429688 248.320312 L 219.613281 249.230469 C 219.492188 247.308594 219.445312 245.507812 219.464844 243.828125 C 219.503906 241.644531 219.605469 239.753906 219.773438 238.160156 C 219.894531 236.851562 220.109375 235.265625 220.417969 233.402344 C 220.753906 231.539062 221.082031 229.972656 221.410156 228.703125 L 221.460938 228.386719 C 221.5 227.972656 221.527344 227.714844 221.546875 227.621094 C 221.570312 227.445312 221.597656 227.265625 221.628906 227.082031 C 221.6875 226.734375 221.773438 226.332031 221.882812 225.878906 M 225.515625 223.070312 L 225.382812 223.390625 C 223.792969 227.660156 222.695312 232.410156 222.085938 237.636719 C 221.53125 242.683594 221.582031 247.730469 222.234375 252.777344 L 222.238281 252.71875 C 222.183594 251.984375 222.136719 251.253906 222.105469 250.527344 L 221.933594 249.128906 C 221.90625 248.859375 221.878906 248.570312 221.859375 248.269531 C 221.792969 247.109375 221.753906 245.976562 221.75 244.867188 C 221.757812 242.203125 221.878906 239.820312 222.125 237.722656 C 222.6875 232.636719 223.820312 227.75 225.515625 223.070312 " fill-opacity="1" fill-rule="nonzero"/><path fill="#5048e4" d="M 342.449219 215.28125 L 342.285156 214.890625 C 341.972656 214.175781 341.945312 214.082031 342.195312 214.613281 L 341.929688 213.996094 L 341.039062 212.085938 C 340.542969 211.074219 340.019531 210.082031 339.464844 209.101562 C 338.273438 207.03125 337.132812 205.261719 336.042969 203.796875 C 333.554688 200.382812 330.6875 197.320312 327.441406 194.617188 C 329.21875 195.902344 331.019531 197.429688 332.835938 199.199219 C 333.6875 199.894531 334.902344 201.3125 336.476562 203.453125 C 338.085938 205.625 339.640625 208.160156 341.140625 211.0625 C 341.882812 212.503906 342.320312 213.910156 342.449219 215.28125 M 284.644531 185.390625 L 285.050781 185.273438 C 285.597656 185.117188 286.140625 184.96875 286.683594 184.835938 C 287.375 184.667969 287.785156 184.570312 287.925781 184.542969 L 287.683594 184.617188 L 287.324219 184.71875 C 287.183594 184.75 286.773438 184.851562 286.09375 185.023438 C 285.414062 185.207031 285.007812 185.320312 284.871094 185.363281 C 284.054688 185.601562 283.25 185.855469 282.457031 186.132812 L 282.109375 186.230469 L 281.976562 186.257812 C 282.109375 186.207031 282.511719 186.070312 283.179688 185.84375 C 283.765625 185.652344 284.253906 185.5 284.644531 185.390625 M 243.023438 239.4375 L 243.054688 239.003906 C 243.246094 236.578125 243.527344 234.414062 243.894531 232.519531 C 243.308594 237.636719 243.03125 241.066406 243.058594 242.800781 L 243.175781 244.875 C 243.105469 241.460938 243.367188 238.945312 243.960938 237.324219 C 243.417969 242.882812 243.507812 248.144531 244.230469 253.109375 C 245.089844 259.164062 246.726562 264.8125 249.136719 270.0625 C 248.355469 268.046875 247.640625 265.867188 247 263.527344 L 248.078125 265.382812 C 249.710938 269.378906 251.222656 272.523438 252.609375 274.824219 C 253.460938 276.273438 254.378906 277.683594 255.359375 279.046875 L 255.078125 278.570312 C 256.046875 279.941406 257.074219 281.265625 258.167969 282.539062 C 258.714844 283.179688 259.273438 283.800781 259.847656 284.40625 L 259.472656 283.832031 C 262.164062 286.386719 264.046875 288.078125 265.125 288.898438 C 268.859375 291.476562 271.542969 293.140625 273.183594 293.894531 C 283.40625 298.726562 293.902344 299.832031 304.675781 297.21875 C 309.339844 296.179688 315.074219 293.625 321.882812 289.554688 C 326.214844 286.40625 330.003906 282.761719 333.25 278.625 C 329.40625 284.140625 325.566406 288.140625 321.734375 290.625 C 319.054688 292.472656 316.492188 293.960938 314.050781 295.09375 C 308.785156 297.453125 305.417969 298.746094 303.953125 298.96875 C 288.304688 302.296875 274.164062 298.441406 261.53125 287.40625 C 264.804688 290.398438 268.144531 292.792969 271.550781 294.601562 C 277.34375 297.738281 283.621094 299.566406 290.378906 300.085938 L 287.761719 300.175781 C 294.847656 300.671875 298.53125 300.699219 298.8125 300.246094 C 311.085938 297.816406 321.132812 292.699219 328.953125 284.894531 C 335.757812 277.675781 340.09375 271.941406 341.957031 267.683594 C 346.140625 257.597656 348.179688 247.996094 348.082031 238.878906 L 347.511719 244.542969 C 348.460938 232.1875 346.214844 220.769531 340.773438 210.285156 C 336.199219 201.710938 330.035156 195.015625 322.277344 190.191406 C 313.851562 185.015625 304.617188 182.75 294.570312 183.390625 C 295.890625 183.195312 297.398438 183.054688 299.097656 182.96875 C 290.425781 182.824219 282.167969 184.898438 274.328125 189.183594 C 258.832031 198.078125 248.800781 212.429688 244.226562 232.25 C 245.449219 225.054688 248.304688 217.3125 252.796875 209.023438 C 253.921875 206.898438 255.214844 204.820312 256.667969 202.777344 C 258.851562 200.042969 261.253906 197.519531 263.878906 195.203125 C 269.246094 190.632812 274.164062 187.589844 278.636719 186.074219 C 276.738281 186.765625 274.878906 187.5625 273.0625 188.46875 L 275.6875 187.0625 C 279.660156 185.058594 284.308594 183.453125 289.632812 182.238281 C 297.488281 180.542969 305.085938 180.890625 312.429688 183.285156 C 308.640625 182.046875 304.277344 181.285156 299.347656 181.011719 C 300.636719 180.875 302.367188 180.960938 304.53125 181.277344 L 302.792969 180.957031 C 312.414062 182.214844 319.210938 184.351562 323.175781 187.371094 L 327.457031 190.535156 C 327.628906 190.707031 327.582031 190.703125 327.3125 190.515625 L 324.773438 188.804688 L 323.65625 188.242188 C 325.53125 189.433594 326.5625 190.152344 326.746094 190.390625 L 329.253906 192.617188 C 327.746094 191.523438 327.175781 191.132812 327.539062 191.4375 L 331.964844 195.15625 C 334.003906 197.085938 336.035156 199.410156 338.066406 202.132812 C 339.339844 203.882812 340.414062 205.515625 341.28125 207.035156 C 339.320312 204.199219 338.320312 202.886719 338.28125 203.097656 C 342.035156 208.261719 345.058594 214.683594 347.347656 222.367188 C 348.339844 225.855469 348.953125 229.769531 349.195312 234.101562 L 349.351562 237.160156 L 349.015625 235.722656 C 349.074219 236.878906 349.101562 238.039062 349.101562 239.207031 L 348.976562 243.882812 C 349.054688 243.257812 349.066406 243.324219 349.007812 244.085938 C 348.546875 249.9375 347.402344 255.578125 345.574219 261.011719 C 346.386719 258.714844 347.125 256.101562 347.789062 253.175781 L 346.765625 257.339844 C 346.863281 258.023438 345.015625 262.894531 341.222656 271.941406 C 338.988281 276.371094 335.554688 281.0625 330.921875 286.015625 C 319.71875 297.035156 306.601562 302.40625 291.570312 302.128906 C 284.488281 301.886719 277.542969 299.988281 270.738281 296.429688 C 263.765625 292.03125 258.359375 287.285156 254.523438 282.199219 C 249.644531 275.828125 246.179688 268.769531 244.136719 261.023438 C 243.015625 256.914062 242.316406 252.4375 242.039062 247.601562 C 241.84375 243.785156 241.96875 240 242.410156 236.25 C 242.644531 234.550781 243.03125 233.199219 243.578125 232.199219 C 243.265625 233.960938 243.082031 236.371094 243.023438 239.4375 M 275.148438 188.371094 L 274.816406 188.519531 L 273.183594 189.292969 L 272.875 189.480469 C 271.050781 190.636719 269.65625 191.566406 268.683594 192.269531 L 266.695312 193.746094 L 265.832031 194.316406 C 265.167969 194.90625 264.382812 195.671875 263.480469 196.621094 C 267.125 193.285156 271.015625 190.535156 275.148438 188.371094 M 348.789062 238.335938 L 348.808594 237.972656 C 348.816406 237.851562 348.832031 237.484375 348.851562 236.882812 C 348.859375 236.640625 348.867188 236.398438 348.871094 236.15625 C 348.882812 235.667969 348.886719 235.183594 348.882812 234.695312 L 348.882812 234.328125 L 348.875 233.953125 C 348.851562 233.664062 348.828125 233.375 348.800781 233.085938 C 348.746094 232.507812 348.6875 231.929688 348.617188 231.351562 L 348.566406 230.921875 L 348.523438 230.765625 C 348.464844 230.855469 348.425781 230.894531 348.410156 230.890625 C 348.367188 230.929688 348.292969 230.894531 348.179688 230.785156 L 348.15625 230.855469 C 348.265625 231.714844 348.359375 232.574219 348.433594 233.4375 C 348.46875 233.867188 348.503906 234.300781 348.53125 234.730469 L 348.558594 235.164062 L 348.632812 236.527344 L 348.664062 236.964844 C 348.703125 237.542969 348.746094 238 348.789062 238.335938 M 269.664062 295.417969 L 270.046875 295.636719 C 273.136719 297.371094 276.375 298.753906 279.769531 299.777344 C 281.742188 300.375 283.742188 300.839844 285.773438 301.171875 L 287.085938 301.371094 L 287.019531 301.28125 C 287.992188 301.351562 288.464844 301.378906 288.429688 301.363281 C 288.496094 301.355469 288.722656 301.339844 289.113281 301.324219 C 286.078125 301.042969 282.984375 300.433594 279.835938 299.5 C 278.433594 299.078125 277.054688 298.589844 275.695312 298.039062 C 274.324219 297.476562 273.015625 296.878906 271.765625 296.253906 C 271.136719 296.078125 270.4375 295.800781 269.664062 295.417969 M 268.234375 291.5 L 268.511719 291.707031 C 271.808594 293.964844 275.671875 295.808594 280.101562 297.234375 C 284.101562 298.484375 288.214844 299.15625 292.4375 299.25 C 283.632812 298.945312 275.566406 296.363281 268.234375 291.5 " fill-opacity="1" fill-rule="nonzero"/><path fill="#5048e4" d="M 309.988281 195.148438 L 309.632812 194.921875 L 308.925781 194.480469 C 309.386719 194.730469 309.382812 194.714844 308.910156 194.433594 L 307.089844 193.359375 C 305.742188 192.605469 304.621094 192.015625 303.730469 191.59375 C 301.316406 190.441406 299.109375 189.527344 297.109375 188.859375 C 292.84375 187.394531 288.449219 186.445312 283.925781 186.011719 C 286.617188 186.113281 289.292969 186.410156 291.957031 186.898438 C 293.15625 187.125 293.890625 187.277344 294.160156 187.363281 C 295.117188 187.621094 296.332031 188.007812 297.808594 188.519531 C 300.765625 189.570312 303.609375 190.832031 306.332031 192.3125 C 307.964844 193.230469 309.183594 194.179688 309.988281 195.148438 M 239.246094 202.863281 L 239.535156 202.550781 C 240.339844 201.691406 241.097656 200.921875 241.8125 200.246094 L 241.292969 200.796875 L 240.394531 201.699219 L 239.523438 202.621094 L 238.664062 203.566406 C 238.65625 203.566406 238.292969 203.988281 237.570312 204.832031 L 237.324219 205.09375 L 237.273438 205.136719 L 238.089844 204.160156 C 238.445312 203.742188 238.832031 203.3125 239.246094 202.863281 M 231.367188 275.871094 L 231.15625 275.492188 C 230.085938 273.558594 229.042969 271.386719 228.035156 268.976562 C 230.398438 273.789062 232.152344 277.050781 233.296875 278.765625 L 234.679688 280.65625 C 232.792969 277.976562 231.53125 275.570312 230.898438 273.433594 C 233.707031 278.773438 236.875 283.394531 240.394531 287.292969 C 244.863281 292.28125 249.828125 296.390625 255.289062 299.625 L 249.253906 295.097656 C 256.101562 299.144531 260.050781 301.34375 261.101562 301.695312 C 263.015625 302.570312 264.703125 303.265625 266.164062 303.773438 L 266.484375 303.886719 C 265.777344 303.59375 265.585938 303.507812 265.914062 303.632812 C 267.5 304.207031 269.101562 304.707031 270.726562 305.140625 L 273.589844 305.824219 L 272.871094 305.558594 L 281.117188 306.613281 C 285.917969 306.65625 289.351562 306.515625 291.417969 306.191406 C 303.828125 304.28125 314.191406 299.101562 322.507812 290.648438 C 326.113281 287.195312 329.949219 281.734375 334.011719 274.269531 C 336.253906 269.261719 337.78125 263.757812 338.597656 257.757812 C 337.953125 265.472656 336.523438 271.398438 334.304688 275.535156 C 333.039062 278.308594 331.472656 281.074219 329.601562 283.835938 C 326.234375 288.617188 323.890625 291.585938 322.570312 292.75 C 309.953125 304.601562 294.800781 309.480469 277.109375 307.378906 C 281.179688 308.023438 285.566406 308.132812 290.273438 307.710938 C 297.417969 307.019531 304.210938 304.960938 310.65625 301.539062 C 309.875 302.160156 309.074219 302.695312 308.246094 303.144531 C 315.25 299.390625 318.757812 297.207031 318.769531 296.585938 C 328.875 287.246094 335.332031 276.832031 338.148438 265.351562 C 343.207031 247.203125 340.214844 229.675781 329.171875 212.769531 C 330.136719 214.367188 331.125 216.226562 332.140625 218.347656 C 325.847656 206.851562 317.078125 198.070312 305.835938 192.011719 C 296.855469 187.253906 287.296875 185 277.15625 185.238281 C 265.980469 185.71875 256.039062 189.113281 247.320312 195.421875 C 248.632812 194.347656 249.941406 193.363281 251.25 192.472656 C 243.390625 197.113281 236.898438 203.675781 231.777344 212.160156 C 222.066406 229.660156 220.882812 248.488281 228.226562 268.648438 C 225.160156 261.359375 223.382812 253.039062 222.898438 243.679688 C 222.09375 238.632812 222.914062 232.035156 225.355469 223.886719 C 227.753906 216.691406 230.703125 211.003906 234.203125 206.828125 C 233.023438 208.257812 231.738281 210.027344 230.355469 212.132812 L 231.476562 210.25 C 233.824219 206.339844 237.230469 202.179688 241.695312 197.777344 C 246.796875 192.292969 254.148438 188.058594 263.75 185.082031 C 259.289062 186.328125 254.847656 188.191406 250.421875 190.675781 C 251.257812 189.972656 252.894531 189.058594 255.332031 187.933594 L 253.609375 188.640625 C 256.113281 187.289062 260.304688 185.671875 266.1875 183.78125 C 269.210938 183.046875 272.582031 182.585938 276.308594 182.394531 L 281.210938 182.601562 L 281.558594 182.695312 C 278.648438 182.652344 277.023438 182.710938 276.6875 182.871094 L 281.257812 182.96875 C 285.023438 183.351562 285.183594 183.460938 281.742188 183.304688 L 289.554688 184.167969 C 292.3125 184.664062 295.289062 185.460938 298.484375 186.570312 C 300.015625 187.097656 301.785156 187.816406 303.789062 188.726562 C 300.554688 187.496094 298.863281 186.945312 298.722656 187.066406 C 305.722656 189.570312 312.441406 193.507812 318.882812 198.886719 C 321.570312 201.121094 324.359375 204.121094 327.242188 207.886719 C 327.960938 208.804688 328.65625 209.738281 329.328125 210.691406 L 328.144531 209.519531 L 330.269531 212.570312 L 332.957031 216.90625 C 332.746094 216.441406 332.773438 216.457031 333.03125 216.949219 C 335.933594 222.082031 338.214844 227.976562 339.875 234.636719 C 339.324219 232.132812 338.480469 229.300781 337.347656 226.136719 L 338.804688 230.441406 C 339.832031 233.570312 340.878906 238.960938 341.945312 246.617188 C 342.472656 251.539062 341.972656 257.707031 340.449219 265.117188 C 336.578125 280.691406 327.933594 292.859375 314.515625 301.617188 C 307.441406 305.960938 299.71875 308.625 291.351562 309.605469 C 282.207031 310.015625 274.382812 309.160156 267.882812 307.039062 C 259.664062 304.46875 252.277344 300.398438 245.726562 294.820312 C 242.238281 291.890625 238.929688 288.390625 235.800781 284.320312 C 233.5 281.285156 231.46875 278.078125 229.707031 274.699219 C 228.472656 272.425781 227.789062 270.519531 227.652344 268.980469 C 228.25 270.503906 229.488281 272.800781 231.367188 275.871094 M 232.128906 210.945312 L 231.921875 211.238281 C 231.507812 211.832031 231.109375 212.4375 230.722656 213.050781 L 230.25 214.042969 L 229.269531 215.964844 C 228.835938 216.871094 228.53125 217.523438 228.363281 217.921875 L 227.234375 220.59375 L 226.792969 221.503906 L 226.648438 221.902344 C 226.40625 222.710938 226.128906 223.761719 225.816406 225.046875 C 227.292969 220.113281 229.394531 215.414062 232.128906 210.945312 M 329.53125 212.019531 L 329.34375 211.703125 C 327.980469 209.46875 327.003906 208.019531 326.414062 207.347656 C 325.867188 206.667969 325.304688 206 324.734375 205.347656 C 324.78125 205.601562 324.671875 205.675781 324.40625 205.574219 C 325.242188 206.539062 325.882812 207.308594 326.335938 207.882812 C 326.597656 208.191406 327.402344 209.242188 328.742188 211.03125 C 329.089844 211.488281 329.355469 211.816406 329.53125 212.019531 M 289.128906 309.449219 L 289.566406 309.414062 C 293.378906 309.105469 297.117188 308.414062 300.789062 307.335938 C 302.625 306.8125 304.691406 306.066406 306.984375 305.101562 L 308.191406 304.566406 L 308.355469 304.472656 C 308.257812 304.488281 308.234375 304.46875 308.292969 304.417969 C 309.070312 304.046875 309.691406 303.679688 310.152344 303.3125 C 307.265625 304.789062 304.097656 306.042969 300.648438 307.078125 C 299.242188 307.488281 297.828125 307.84375 296.40625 308.140625 C 295.121094 308.421875 293.539062 308.679688 291.65625 308.917969 C 290.777344 309.175781 289.933594 309.355469 289.128906 309.449219 M 285.480469 307.019531 L 285.828125 307.03125 C 290.101562 307.039062 294.632812 306.394531 299.414062 305.097656 C 304.121094 303.746094 308.363281 301.921875 312.136719 299.632812 C 311.484375 299.972656 310.832031 300.300781 310.179688 300.609375 C 309.542969 301 309.003906 301.3125 308.554688 301.535156 C 307.898438 301.871094 307 302.285156 305.855469 302.78125 C 303.40625 303.804688 301.167969 304.585938 299.136719 305.125 C 294.925781 306.3125 290.375 306.941406 285.480469 307.019531 " fill-opacity="1" fill-rule="nonzero"/><path fill="#5048e4" d="M 243.074219 191.753906 L 242.757812 192.035156 C 242.019531 192.714844 241.917969 192.789062 242.457031 192.261719 C 242.246094 192.449219 242.039062 192.640625 241.832031 192.832031 L 240.304688 194.289062 C 239.597656 194.976562 238.722656 195.894531 237.683594 197.039062 C 235.988281 198.929688 234.414062 200.914062 232.960938 202.996094 C 230.234375 206.875 227.933594 211.140625 226.0625 215.792969 C 227.0625 212.898438 228.148438 210.292969 229.316406 207.980469 C 229.84375 206.726562 230.960938 204.886719 232.664062 202.460938 C 234.371094 200.003906 236.449219 197.488281 238.90625 194.917969 C 240.160156 193.578125 241.546875 192.527344 243.074219 191.753906 M 227.679688 266.839844 L 227.492188 266.460938 C 227.25 265.953125 227.007812 265.4375 226.773438 264.917969 C 226.488281 264.269531 226.316406 263.878906 226.261719 263.75 L 226.097656 263.359375 L 226.148438 263.441406 L 226.308594 263.777344 L 226.996094 265.3125 C 227.050781 265.441406 227.234375 265.828125 227.535156 266.464844 C 228.097656 267.609375 228.550781 268.492188 228.894531 269.113281 L 229.207031 269.765625 C 228.730469 268.921875 228.21875 267.945312 227.679688 266.839844 M 296.515625 302.183594 L 296.089844 302.265625 C 293.511719 302.738281 290.957031 303.050781 288.429688 303.203125 C 293.425781 302.605469 297.339844 301.929688 300.175781 301.179688 L 302.5 300.410156 C 299.0625 301.480469 296.167969 301.96875 293.816406 301.882812 C 299.355469 301.089844 304.945312 299.445312 310.578125 296.945312 C 316.765625 294.195312 322.546875 290.332031 327.925781 285.355469 C 326.144531 286.855469 324.035156 288.453125 321.589844 290.148438 L 331.429688 280.453125 C 332.734375 278.976562 333.964844 277.441406 335.121094 275.847656 C 335.785156 274.949219 335.777344 274.933594 335.09375 275.800781 C 336.085938 274.4375 337.019531 273.035156 337.898438 271.59375 L 339.769531 268.300781 L 339.199219 269.117188 C 341.058594 265.191406 342.242188 262.5 342.753906 261.046875 C 344.148438 256.617188 345.070312 253.144531 345.519531 250.632812 C 347.703125 237.144531 346.054688 224.492188 340.574219 212.667969 C 338.347656 207.691406 334.585938 202.011719 329.292969 195.628906 C 325.015625 191.191406 320.164062 187.457031 314.738281 184.433594 C 326.207031 189.421875 335.617188 199.363281 342.960938 214.257812 C 349.859375 231.085938 349.628906 248.121094 342.269531 265.367188 C 344.164062 261.199219 345.597656 256.878906 346.566406 252.398438 C 348.195312 244.792969 348.433594 237.140625 347.277344 229.445312 C 347.5 229.90625 347.746094 230.855469 348.015625 232.300781 C 346.882812 224.300781 345.867188 219.738281 344.972656 218.617188 C 339.441406 205.011719 331.492188 194.566406 321.125 187.285156 C 305.792969 175.570312 287.6875 172.382812 266.8125 177.730469 C 269.253906 177.175781 271.460938 176.78125 273.433594 176.554688 C 260.175781 178.984375 248.785156 184.96875 239.265625 194.507812 C 231.769531 202.179688 226.519531 211.167969 223.515625 221.46875 C 220.277344 232.964844 220.226562 244.46875 223.367188 255.976562 L 221.902344 251.121094 C 223.996094 261.46875 228.214844 270.640625 234.550781 278.632812 C 247.90625 294.953125 265.757812 303.054688 288.109375 302.929688 C 280.15625 303.484375 271.5 302.265625 262.140625 299.269531 C 255.652344 297.535156 249.484375 294.238281 243.640625 289.382812 C 237.421875 284.230469 232.78125 278.894531 229.722656 273.367188 C 230.832031 275.34375 232.042969 277.261719 233.363281 279.121094 C 233.390625 279.1875 233.046875 278.746094 232.335938 277.796875 C 229.105469 273.46875 226.304688 268.519531 223.933594 262.953125 C 220.414062 256.113281 218.746094 247.125 218.921875 235.988281 C 218.675781 240.582031 219.003906 245.601562 219.902344 251.042969 C 219.917969 251.265625 219.902344 251.296875 219.851562 251.144531 L 219.359375 248.800781 C 219.179688 247.628906 219.035156 246.453125 218.921875 245.28125 L 219.039062 247.382812 C 218.585938 244.582031 218.394531 239.75 218.464844 232.882812 C 218.78125 229.34375 219.386719 225.851562 220.277344 222.410156 L 222.011719 217.449219 L 222.183594 217.175781 C 221.148438 220.484375 220.703125 222.140625 220.84375 222.148438 C 221.527344 219.648438 222.054688 218.050781 222.433594 217.355469 C 223.890625 213.808594 224.019531 213.738281 222.820312 217.148438 C 225.027344 211.542969 226.199219 208.800781 226.332031 208.914062 C 227.953125 205.78125 229.816406 202.800781 231.921875 199.964844 L 234.929688 196.214844 C 232.972656 198.761719 231.914062 200.3125 231.746094 200.859375 C 234.492188 197.066406 237.613281 193.609375 241.105469 190.484375 C 244.386719 187.449219 247.585938 185.035156 250.703125 183.238281 C 252.945312 181.695312 256.777344 179.902344 262.207031 177.863281 C 263.027344 177.5625 263.855469 177.28125 264.691406 177.015625 L 263.195312 177.804688 L 267.289062 176.539062 L 272.242188 175.335938 C 272.511719 175.289062 272.359375 175.304688 271.777344 175.382812 C 272.0625 175.324219 272.351562 175.269531 272.636719 175.214844 C 278.726562 174.039062 285.328125 173.828125 292.441406 174.585938 C 289.464844 174.207031 286.363281 174.039062 283.132812 174.082031 L 284.839844 174.050781 C 289.363281 174.105469 293.554688 174.546875 297.417969 175.386719 C 304.578125 175.917969 312.882812 179.285156 322.332031 185.484375 C 335.925781 195.242188 344.675781 208.53125 348.59375 225.347656 C 352.101562 244.132812 348.726562 260.859375 338.464844 275.53125 C 333.175781 283.21875 326.820312 289.398438 319.402344 294.0625 C 315.574219 296.535156 311.246094 298.652344 306.425781 300.414062 C 303.253906 301.578125 299.722656 302.515625 295.832031 303.234375 C 292.816406 303.859375 290.355469 303.96875 288.441406 303.554688 C 290.445312 303.433594 293.136719 302.976562 296.515625 302.183594 M 232.898438 277.015625 L 233.097656 277.316406 C 233.496094 277.917969 233.902344 278.515625 234.324219 279.105469 L 236.726562 281.847656 L 238.191406 283.429688 C 238.707031 283.96875 239.402344 284.660156 240.273438 285.507812 L 241.207031 286.519531 C 241.792969 287.035156 242.761719 287.78125 244.109375 288.761719 C 239.796875 285.230469 236.058594 281.3125 232.898438 277.015625 M 266.207031 177.164062 L 265.851562 177.25 C 264.917969 177.472656 263.980469 177.71875 263.039062 177.992188 C 262.574219 178.125 262.109375 178.265625 261.648438 178.410156 C 261.40625 178.488281 261.144531 178.585938 260.863281 178.699219 C 260.183594 178.957031 259.246094 179.351562 258.054688 179.875 L 257.988281 179.933594 C 258.125 179.964844 258.191406 180.003906 258.179688 180.054688 C 258.191406 180.09375 258.160156 180.175781 258.089844 180.296875 C 259.140625 179.824219 260.203125 179.378906 261.28125 178.964844 C 261.65625 178.804688 262.902344 178.359375 265.015625 177.621094 C 265.539062 177.429688 265.9375 177.277344 266.207031 177.164062 M 347.949219 253.703125 L 348.046875 253.277344 C 348.945312 249.269531 349.460938 245.210938 349.59375 241.109375 C 349.671875 238.765625 349.621094 236.429688 349.445312 234.101562 C 349.386719 233.375 349.351562 232.9375 349.335938 232.789062 C 349.3125 232.703125 349.292969 232.710938 349.273438 232.804688 L 349.234375 232.71875 C 349.082031 231.652344 349.003906 231.15625 349 231.234375 L 348.789062 230.519531 C 348.902344 231.382812 349 232.25 349.078125 233.125 C 349.152344 233.851562 349.21875 234.863281 349.28125 236.164062 C 349.359375 237.910156 349.363281 239.65625 349.296875 241.40625 C 349.253906 242.421875 349.214844 243.148438 349.179688 243.585938 C 349.117188 244.457031 349.039062 245.324219 348.941406 246.195312 C 348.722656 248.074219 348.484375 249.65625 348.234375 250.945312 L 348.210938 251.234375 C 348.207031 251.398438 348.199219 251.570312 348.191406 251.742188 C 348.179688 251.917969 348.164062 252.097656 348.148438 252.277344 C 348.128906 252.550781 348.0625 253.023438 347.949219 253.703125 M 344.5 256.683594 L 344.613281 256.355469 C 345.21875 254.4375 345.753906 252.148438 346.214844 249.480469 C 346.640625 246.980469 346.910156 244.464844 347.03125 241.933594 C 347.148438 239.40625 347.117188 236.882812 346.929688 234.359375 C 346.726562 231.738281 346.402344 229.328125 345.964844 227.136719 C 346.050781 227.75 346.15625 228.59375 346.273438 229.65625 C 346.4375 230.414062 346.550781 231.042969 346.609375 231.546875 C 346.746094 232.703125 346.851562 233.832031 346.921875 234.9375 C 346.996094 236.050781 347.035156 237.171875 347.050781 238.300781 C 347.0625 239.566406 347.039062 240.828125 346.976562 242.089844 C 346.851562 244.617188 346.574219 247.128906 346.140625 249.628906 C 345.679688 252.226562 345.132812 254.578125 344.5 256.683594 " fill-opacity="1" fill-rule="nonzero"/><path fill="#121827" d="M 312.648438 260.078125 C 311.847656 245.859375 294.019531 239.394531 292.316406 238.730469 C 292.246094 238.695312 292.246094 238.625 292.28125 238.558594 L 310.664062 220.039062 L 310.664062 218.050781 C 310.664062 217.734375 310.386719 217.457031 310.070312 217.457031 L 276.195312 217.457031 L 276.195312 202.957031 L 263.695312 205.578125 L 263.695312 207.464844 L 264.390625 207.464844 C 264.390625 207.464844 267.457031 207.464844 267.457031 210.539062 L 267.457031 217.421875 L 257.777344 217.421875 C 257.601562 217.421875 257.429688 217.59375 257.429688 217.769531 L 257.429688 222.136719 L 267.488281 222.136719 C 267.488281 222.136719 267.488281 226.785156 267.488281 232.199219 L 267.488281 245.859375 C 267.488281 253.300781 272.261719 258.472656 280.617188 257.773438 C 282.390625 257.632812 284.027344 256.933594 285.421875 256.023438 C 286.046875 255.605469 286.429688 254.941406 286.429688 254.171875 L 286.429688 251.832031 C 283.714844 253.648438 281.417969 253.542969 281.417969 253.542969 C 276.125 253.542969 276.230469 246.800781 276.230469 246.800781 L 276.230469 222.136719 L 300.601562 222.136719 L 283.054688 239.882812 C 283.019531 242.226562 282.984375 244.042969 282.984375 244.078125 C 282.984375 244.148438 283.019531 244.183594 283.089844 244.183594 C 299.171875 246.90625 303.527344 257.351562 303.527344 260.390625 C 303.527344 260.390625 305.265625 275.171875 290.539062 276.183594 C 290.539062 276.183594 280.894531 276.601562 279.1875 272.726562 C 279.117188 272.585938 279.1875 272.445312 279.328125 272.375 C 280.929688 271.640625 282.007812 270.210938 282.007812 268.289062 C 282.007812 265.421875 280.269531 263.082031 276.613281 263.082031 C 273.652344 263.082031 271.214844 265.421875 271.214844 268.289062 C 271.214844 268.289062 269.824219 280.726562 290.503906 280.375 C 314.109375 279.957031 312.648438 260.078125 312.648438 260.078125 Z M 312.648438 260.078125 " fill-opacity="1" fill-rule="nonzero"/><g clip-path="url(#id4)"><path fill="#121827" d="M 332.085938 142.117188 C 331.480469 142.171875 330.902344 145.46875 329.273438 149.824219 C 328.460938 151.996094 327.375 154.421875 325.996094 156.808594 C 324.609375 159.195312 322.917969 161.53125 321.039062 163.582031 C 319.152344 165.628906 317.105469 167.394531 315.027344 168.804688 C 312.964844 170.226562 310.925781 171.3125 309.109375 172.089844 C 307.296875 172.871094 305.738281 173.382812 304.578125 173.703125 C 303.421875 174.03125 302.675781 174.21875 302.464844 174.3125 C 302.050781 174.515625 301.8125 175.03125 301.6875 175.777344 C 301.566406 176.53125 301.578125 177.5625 301.679688 178.75 C 301.898438 181.140625 302.503906 184.335938 303.671875 187.667969 C 304.839844 191 306.441406 193.8125 308.269531 195.59375 C 309.183594 196.492188 310.128906 197.09375 311.054688 197.402344 C 311.984375 197.714844 312.871094 197.6875 313.640625 197.3125 C 314.027344 197.132812 315.21875 196.378906 316.898438 195.097656 C 318.585938 193.824219 320.722656 191.972656 322.9375 189.609375 C 325.15625 187.253906 327.414062 184.347656 329.378906 181.066406 C 331.363281 177.804688 333.007812 174.121094 334.144531 170.410156 C 335.277344 166.699219 335.894531 162.957031 336.074219 159.507812 C 336.242188 156.054688 335.988281 152.902344 335.507812 150.289062 C 335.023438 147.671875 334.34375 145.597656 333.699219 144.199219 C 333.042969 142.800781 332.460938 142.074219 332.085938 142.117188 " fill-opacity="1" fill-rule="nonzero"/></g><g clip-path="url(#id5)"><path fill="#121827" d="M 237.84375 142.113281 C 237.328125 142.050781 235.699219 145.058594 234.761719 150.261719 C 234.296875 152.855469 234.042969 155.984375 234.195312 159.417969 C 234.363281 162.839844 234.953125 166.566406 236.050781 170.273438 C 237.15625 173.972656 238.761719 177.65625 240.710938 180.929688 C 242.640625 184.21875 244.867188 187.144531 247.0625 189.519531 C 249.25 191.902344 251.371094 193.78125 253.046875 195.066406 C 254.714844 196.367188 255.902344 197.132812 256.289062 197.3125 C 257.054688 197.6875 257.945312 197.714844 258.875 197.402344 C 259.800781 197.09375 260.742188 196.492188 261.65625 195.589844 C 263.488281 193.8125 265.085938 191 266.257812 187.667969 C 267.425781 184.335938 268.027344 181.140625 268.25 178.75 C 268.351562 177.5625 268.363281 176.53125 268.242188 175.777344 C 268.117188 175.03125 267.878906 174.511719 267.460938 174.3125 C 267.253906 174.21875 266.511719 174.019531 265.367188 173.675781 C 264.214844 173.335938 262.675781 172.800781 260.886719 172 C 257.316406 170.417969 252.835938 167.542969 249.15625 163.445312 C 247.3125 161.402344 245.648438 159.078125 244.273438 156.714844 C 242.910156 154.351562 241.824219 151.953125 240.996094 149.796875 C 239.328125 145.488281 238.648438 142.199219 237.84375 142.113281 " fill-opacity="1" fill-rule="nonzero"/></g></svg>